<svg width="221" height="221" viewBox="0 0 221 221" fill="none" xmlns="http://www.w3.org/2000/svg">
<g clip-path="url(#clip0_17_103782)">
<path d="M178.566 69.1745C177.245 70.107 175.941 70.5969 174.655 70.6441C173.38 70.6932 172.173 70.3786 171.034 69.7001C169.902 69.0171 168.892 68.0469 168.004 66.7895L164.301 61.5428L164.636 61.3063C164.983 61.7978 165.285 62.1301 165.541 62.3032C165.797 62.4763 166.074 62.5101 166.372 62.4046C166.675 62.3055 167.066 62.087 167.545 61.7491L175.147 56.3836C175.645 56.0322 175.993 55.7336 176.193 55.4877C176.403 55.2437 176.466 54.9743 176.383 54.6796C176.305 54.3803 176.089 53.9786 175.733 53.4743L176.039 53.2581L179.404 58.026C180.103 59.0154 180.656 60.0021 181.063 60.9861C181.482 61.9721 181.696 62.9396 181.706 63.8887C181.727 64.8397 181.487 65.7597 180.986 66.6488C180.496 67.5397 179.69 68.3816 178.566 69.1745ZM177.121 67.2686C178.085 66.5884 178.834 65.787 179.369 64.8646C179.908 63.9485 180.163 62.975 180.133 61.944C180.11 60.9086 179.735 59.877 179.01 58.8494C178.794 58.543 178.554 58.2578 178.292 57.9939C178.04 57.7318 177.766 57.4801 177.472 57.2386L167.505 64.2732C167.64 64.6273 167.792 64.9787 167.962 65.3275C168.132 65.6763 168.323 66.0007 168.534 66.3007C169.255 67.3219 170.1 68.0115 171.07 68.3693C172.046 68.7227 173.059 68.7965 174.11 68.5908C175.16 68.3851 176.163 67.9444 177.121 67.2686ZM177.473 82.2434L174.958 76.6288L175.332 76.4611C175.584 77.0244 175.818 77.4119 176.033 77.6239C176.258 77.8398 176.527 77.9247 176.84 77.8785C177.153 77.8324 177.574 77.6911 178.101 77.4547L186.593 73.6505C187.128 73.4109 187.52 73.1881 187.77 72.9819C188.02 72.7757 188.136 72.5183 188.118 72.2098C188.109 71.9052 187.979 71.4713 187.727 70.9081L188.069 70.7547L190.585 76.3694L190.242 76.5227C189.996 75.9737 189.759 75.5877 189.531 75.3647C189.313 75.1456 189.042 75.0572 188.719 75.0994C188.395 75.1416 187.966 75.2825 187.431 75.522L178.94 79.3263C178.412 79.5627 178.027 79.7823 177.784 79.9853C177.541 80.1883 177.425 80.4457 177.437 80.7574C177.458 81.073 177.595 81.5125 177.847 82.0757L177.473 82.2434ZM185.177 94.9122C184.374 95.1167 183.625 95.086 182.928 94.8201C182.239 94.5523 181.651 94.1257 181.163 93.5406C180.685 92.961 180.349 92.2927 180.156 91.5357C180.031 91.0436 179.974 90.5341 179.985 90.0073C179.997 89.4881 180.021 89.0105 180.055 88.5745C180.091 88.1461 180.079 87.8146 180.019 87.5799C179.961 87.3528 179.83 87.2169 179.625 87.1724C179.422 87.1354 179.227 87.1287 179.039 87.1523L178.944 86.7776L183.759 85.5506L183.854 85.9253C182.702 86.3721 181.843 87.0344 181.277 87.9124C180.72 88.796 180.6 89.8586 180.916 91.1002C181.03 91.5469 181.224 91.9609 181.499 92.3425C181.781 92.722 182.127 93.0047 182.537 93.1904C182.947 93.3761 183.406 93.4044 183.913 93.2751C184.451 93.1381 184.875 92.8406 185.185 92.3826C185.496 91.9245 185.746 91.3729 185.937 90.7278C186.135 90.0808 186.319 89.3969 186.49 88.676C186.663 87.9628 186.875 87.2759 187.126 86.6154C187.377 85.9548 187.714 85.3811 188.138 84.8941C188.563 84.4071 189.127 84.0738 189.831 83.8944C190.595 83.6996 191.298 83.722 191.94 83.9616C192.582 84.2012 193.124 84.591 193.568 85.1309C194.02 85.6689 194.336 86.2937 194.518 87.0053C194.624 87.4217 194.665 87.8545 194.643 88.3036C194.62 88.7528 194.584 89.1651 194.535 89.5405C194.495 89.9216 194.501 90.2143 194.553 90.4187C194.607 90.6307 194.737 90.7627 194.944 90.8148C195.158 90.865 195.346 90.8897 195.507 90.889L195.608 91.2865L190.805 92.5105L190.704 92.1131C191.415 91.8673 192.033 91.5083 192.558 91.036C193.084 90.5713 193.459 90.0163 193.681 89.371C193.906 88.7333 193.918 88.0208 193.717 87.2335C193.613 86.8247 193.425 86.4532 193.155 86.119C192.886 85.7924 192.562 85.5485 192.182 85.3873C191.805 85.2336 191.4 85.2118 190.968 85.3218C190.461 85.451 190.061 85.7465 189.767 86.2083C189.476 86.6777 189.241 87.2415 189.062 87.8998C188.885 88.5657 188.712 89.2628 188.542 89.9912C188.383 90.7252 188.176 91.431 187.921 92.1087C187.676 92.7919 187.339 93.3818 186.909 93.8783C186.481 94.3824 185.904 94.727 185.177 94.9122ZM186.664 112.595L186.452 112.93C185.268 112.325 184.33 111.541 183.635 110.578C182.949 109.622 182.585 108.469 182.543 107.118C182.499 105.697 182.781 104.449 183.389 103.375C184.005 102.309 184.854 101.47 185.937 100.858C187.028 100.253 188.265 99.9297 189.647 99.887C191.068 99.843 192.37 100.107 193.553 100.681C194.743 101.261 195.699 102.087 196.42 103.159C197.149 104.231 197.536 105.497 197.581 106.957C197.604 107.699 197.53 108.346 197.36 108.899C197.189 109.459 196.977 110.063 196.724 110.712C196.733 111.001 196.853 111.205 197.083 111.322C197.313 111.44 197.527 111.524 197.724 111.572L197.735 111.947L192.884 112.402L192.874 112.098C194.058 111.701 195.024 111.109 195.774 110.32C196.523 109.538 196.878 108.488 196.837 107.168C196.807 106.184 196.574 105.371 196.14 104.727C195.706 104.092 195.139 103.59 194.44 103.221C193.749 102.859 192.991 102.609 192.166 102.47C191.341 102.332 190.518 102.275 189.699 102.301C188.558 102.336 187.51 102.552 186.553 102.949C185.604 103.354 184.853 103.959 184.3 104.766C183.746 105.58 183.489 106.62 183.529 107.885C183.553 108.681 183.695 109.353 183.954 109.9C184.214 110.447 184.572 110.928 185.031 111.344C185.497 111.767 186.042 112.184 186.664 112.595ZM187.394 132.18C186.392 131.97 185.479 131.606 184.653 131.09C183.826 130.58 183.129 129.947 182.562 129.189C182.001 128.441 181.611 127.6 181.392 126.668C181.18 125.737 181.183 124.752 181.402 123.712C181.696 122.313 182.288 121.168 183.178 120.278C184.073 119.396 185.143 118.791 186.385 118.461C187.628 118.131 188.922 118.108 190.268 118.391C191.621 118.675 192.786 119.231 193.761 120.059C194.743 120.896 195.448 121.91 195.876 123.102C196.304 124.294 196.373 125.581 196.082 126.965C195.868 127.982 195.48 128.862 194.916 129.606C194.36 130.351 193.68 130.947 192.876 131.393C192.078 131.848 191.21 132.144 190.27 132.282C189.331 132.42 188.373 132.386 187.394 132.18ZM187.753 129.789C188.525 129.951 189.319 130.05 190.133 130.086C190.947 130.129 191.713 130.054 192.432 129.862C193.158 129.672 193.784 129.316 194.308 128.796C194.831 128.283 195.193 127.549 195.394 126.593C195.579 125.714 195.529 124.941 195.246 124.275C194.969 123.618 194.54 123.057 193.96 122.591C193.379 122.126 192.724 121.745 191.996 121.448C191.267 121.159 190.543 120.939 189.824 120.788C189.121 120.64 188.365 120.553 187.556 120.527C186.747 120.501 185.968 120.581 185.218 120.766C184.467 120.96 183.817 121.298 183.269 121.782C182.726 122.274 182.362 122.96 182.178 123.839C181.983 124.765 182.018 125.566 182.283 126.245C182.547 126.923 182.966 127.494 183.539 127.958C184.111 128.429 184.765 128.81 185.503 129.101C186.246 129.4 186.996 129.63 187.753 129.789ZM185.942 153.96L185.605 153.795C185.779 153.21 185.77 152.696 185.578 152.254C185.383 151.819 185.093 151.381 184.709 150.94L175.888 141.037L176.053 140.7L189.58 141.334C190.233 141.367 190.759 141.325 191.156 141.207C191.554 141.088 191.937 140.733 192.306 140.139L192.643 140.305L190.067 145.554L189.73 145.389C189.806 145.2 189.874 144.981 189.935 144.732C190.003 144.487 190.017 144.255 189.977 144.035C189.937 143.815 189.791 143.643 189.538 143.519C189.3 143.402 189.044 143.329 188.771 143.3C188.506 143.274 188.194 143.252 187.838 143.233L178.684 142.814L184.683 149.556C184.82 149.719 185.014 149.928 185.264 150.181C185.517 150.444 185.742 150.624 185.939 150.721C186.163 150.831 186.378 150.836 186.583 150.737C186.785 150.645 186.968 150.504 187.131 150.314C187.297 150.134 187.441 149.965 187.562 149.807L187.898 149.973L185.942 153.96ZM166.673 162.25L164.698 158.987L171.72 150.453L172.036 150.714C171.659 151.172 171.421 151.548 171.322 151.841C171.222 152.133 171.261 152.413 171.436 152.679C171.612 152.945 171.926 153.264 172.379 153.636L179.609 159.585C180.074 159.967 180.448 160.219 180.732 160.342C181.016 160.464 181.289 160.446 181.551 160.287C181.808 160.134 182.133 159.82 182.525 159.343L182.814 159.581L175.793 168.115L173.273 166.254L173.518 165.955C174.099 166.221 174.569 166.4 174.928 166.493C175.292 166.59 175.635 166.549 175.956 166.368C176.278 166.197 176.665 165.838 177.117 165.289L179.641 162.221L175.261 158.618L173.251 161.061C172.878 161.513 172.64 161.889 172.536 162.188C172.438 162.491 172.461 162.789 172.606 163.08C172.757 163.376 173.022 163.731 173.4 164.143L173.155 164.442L169.282 161.255L169.527 160.957C170.011 161.254 170.411 161.451 170.725 161.548C171.046 161.65 171.346 161.623 171.625 161.469C171.91 161.319 172.244 161.012 172.626 160.547L174.636 158.104L170.989 155.103C170.561 154.751 170.21 154.532 169.935 154.448C169.666 154.369 169.344 154.558 168.966 155.017L167.433 156.881C166.901 157.527 166.562 158.087 166.414 158.562C166.261 159.043 166.245 159.536 166.366 160.04C166.482 160.551 166.681 161.17 166.963 161.897L166.673 162.25ZM150.547 171.308L153.595 168.947L161.545 171.267C161.741 171.086 161.956 170.904 162.19 170.723C162.289 170.646 162.385 170.572 162.478 170.5C162.569 170.439 162.66 170.378 162.751 170.318L160.203 167.029C159.844 166.566 159.535 166.243 159.274 166.059C159.007 165.88 158.72 165.841 158.412 165.941C158.104 166.042 157.712 166.276 157.237 166.644L156.986 166.32L161.858 162.545L162.109 162.869C161.622 163.247 161.297 163.568 161.135 163.831C160.974 164.095 160.956 164.371 161.08 164.66C161.199 164.953 161.438 165.331 161.797 165.795L167.495 173.15C167.864 173.625 168.175 173.957 168.43 174.146C168.683 174.345 168.957 174.399 169.253 174.308C169.548 174.218 169.94 173.984 170.428 173.606L170.658 173.902L166.378 177.218C165.884 177.601 165.347 177.967 164.768 178.317C164.183 178.671 163.586 178.927 162.975 179.083C162.359 179.244 161.758 179.241 161.173 179.072C160.592 178.909 160.05 178.503 159.548 177.855C158.878 176.99 158.632 176.124 158.809 175.255C158.99 174.393 159.412 173.572 160.073 172.793L155.217 171.308C154.358 171.054 153.601 170.919 152.946 170.903C152.296 170.893 151.58 171.136 150.799 171.632L150.547 171.308ZM161.319 176.275C161.883 177.004 162.564 177.411 163.361 177.495C164.151 177.584 164.911 177.346 165.64 176.782C165.856 176.614 166.063 176.429 166.262 176.226C166.454 176.028 166.65 175.821 166.85 175.607L163.203 170.901C163.084 170.964 162.916 171.079 162.7 171.247C162.157 171.668 161.692 172.146 161.307 172.682C160.92 173.229 160.705 173.806 160.661 174.413C160.612 175.024 160.831 175.645 161.319 176.275ZM132.822 190.597C132.507 189.615 132.481 188.779 132.743 188.087C133.006 187.396 133.466 186.822 134.123 186.365C134.783 185.916 135.549 185.551 136.419 185.272C136.702 185.182 136.992 185.101 137.289 185.031C137.586 184.96 137.892 184.89 138.207 184.822L136.983 181.006C136.805 180.448 136.624 180.038 136.442 179.777C136.252 179.518 135.999 179.381 135.683 179.368C135.36 179.356 134.915 179.442 134.35 179.623L134.224 179.232L140.072 177.358L140.197 177.748C139.617 177.934 139.21 178.122 138.975 178.312C138.733 178.505 138.622 178.758 138.64 179.072C138.651 179.388 138.746 179.826 138.925 180.384L141.765 189.244C141.949 189.817 142.125 190.237 142.292 190.503C142.462 190.777 142.701 190.921 143.01 190.937C143.311 190.956 143.755 190.871 144.343 190.682L144.457 191.039L139.469 192.638C138.852 192.836 138.205 192.982 137.53 193.075C136.856 193.176 136.208 193.175 135.584 193.071C134.96 192.968 134.406 192.723 133.921 192.337C133.436 191.951 133.07 191.371 132.822 190.597ZM135.06 189.671C135.341 190.549 135.835 191.219 136.541 191.682C137.248 192.144 138.066 192.227 138.996 191.929C139.211 191.859 139.426 191.762 139.64 191.636C139.856 191.517 140.07 191.404 140.282 191.295L138.425 185.503C138.138 185.554 137.852 185.609 137.567 185.667C137.285 185.733 136.998 185.813 136.708 185.906C136.173 186.078 135.755 186.363 135.457 186.762C135.161 187.169 134.98 187.629 134.915 188.142C134.849 188.655 134.898 189.165 135.06 189.671ZM114.175 187.017L115.01 182.988L126.123 181.88L126.164 182.288C125.495 182.354 124.993 182.511 124.656 182.756C124.312 183.003 124.177 183.507 124.253 184.268L125.244 194.204C125.319 194.958 125.55 195.425 125.938 195.606C126.317 195.788 126.841 195.846 127.509 195.779L127.549 196.176L121.334 196.796L121.294 196.399C121.978 196.331 122.492 196.17 122.836 195.916C123.179 195.662 123.314 195.158 123.238 194.404L122.3 184.993C122.229 184.286 122.058 183.824 121.785 183.608C121.512 183.392 121.022 183.319 120.315 183.389L118.88 183.532C117.963 183.624 117.24 183.775 116.711 183.984C116.183 184.194 115.761 184.534 115.447 185.005C115.125 185.477 114.824 186.155 114.543 187.039L114.175 187.017ZM95.6382 181.551L101.274 182.287L101.221 182.694C100.903 182.653 100.578 182.665 100.247 182.732C99.9139 182.807 99.7227 183.034 99.6731 183.414C99.6488 183.6 99.6696 183.862 99.7356 184.202C99.7928 184.548 99.875 184.914 99.9824 185.298C100.082 185.681 100.178 186.033 100.27 186.352C100.362 186.671 100.431 186.897 100.477 187.029L105.997 187.75C106.066 187.641 106.194 187.445 106.381 187.162C106.56 186.878 106.755 186.561 106.966 186.21C107.17 185.859 107.351 185.524 107.511 185.206C107.671 184.888 107.762 184.644 107.784 184.473C107.816 184.225 107.74 184.023 107.556 183.865C107.371 183.714 107.15 183.599 106.892 183.518C106.635 183.437 106.418 183.381 106.241 183.35L106.294 182.943L110.791 183.531L110.738 183.937C110.285 183.902 109.909 183.979 109.608 184.168C109.3 184.356 109.03 184.616 108.797 184.949C108.556 185.287 108.315 185.658 108.073 186.059L101.51 197.127L101.15 197.08L97.7434 184.615C97.6131 184.165 97.4817 183.754 97.349 183.382C97.2154 183.018 97.0189 182.713 96.7596 182.466C96.4915 182.226 96.1 182.057 95.585 181.958L95.6382 181.551ZM100.668 187.834L102.337 193.961L105.571 188.474L100.668 187.834ZM73.5626 189.07L73.7014 188.721C74.2603 188.944 74.6978 189.059 75.0141 189.068C75.3231 189.073 75.5775 188.952 75.7774 188.703C75.9671 188.459 76.169 188.069 76.383 187.532L80.868 176.275L81.2164 176.414L85.7641 190.677L89.0346 182.468C89.2544 181.917 89.3808 181.483 89.4137 181.169C89.4438 180.861 89.3433 180.607 89.1124 180.405C88.8742 180.201 88.4757 179.988 87.9168 179.765L88.0686 179.384L92.7172 181.236L92.5653 181.617C92.0138 181.397 91.5835 181.285 91.2744 181.279C90.9654 181.274 90.7124 181.392 90.5155 181.633C90.3156 181.881 90.1087 182.274 89.8947 182.811L86.1947 192.097C86.3493 192.68 86.5218 193.144 86.7123 193.489C86.8927 193.839 87.2841 194.133 87.8865 194.373L87.7476 194.722L84.4817 193.42L80.3031 180.162L77.2321 187.87C77.0181 188.407 76.8997 188.831 76.8769 189.141C76.8513 189.459 76.9561 189.724 77.1914 189.935C77.4194 190.144 77.8129 190.36 78.3717 190.582L78.2329 190.931L73.5626 189.07ZM65.2241 171.679C65.6951 170.998 66.2806 170.529 66.9805 170.272C67.6761 170.021 68.3999 169.957 69.152 170.078C69.8933 170.201 70.5852 170.484 71.2278 170.929C71.6455 171.217 72.0232 171.564 72.3609 171.969C72.6922 172.369 72.9882 172.744 73.2488 173.095C73.503 173.442 73.7297 173.684 73.9289 173.822C74.1217 173.955 74.3099 173.971 74.4937 173.871C74.671 173.765 74.8226 173.642 74.9485 173.501L75.2666 173.721L72.4409 177.808L72.1228 177.588C72.6983 176.495 72.9113 175.431 72.7619 174.397C72.6017 173.365 71.9946 172.485 70.9407 171.756C70.5616 171.494 70.1432 171.309 69.6856 171.202C69.2236 171.101 68.7769 171.115 68.3456 171.244C67.9144 171.373 67.5499 171.653 67.2522 172.084C66.9367 172.54 66.8123 173.043 66.8788 173.592C66.9454 174.142 67.1187 174.722 67.3987 175.334C67.6743 175.952 67.9843 176.588 68.3286 177.244C68.6665 177.896 68.9577 178.553 69.2022 179.216C69.4467 179.879 69.5689 180.533 69.5688 181.179C69.5687 181.825 69.362 182.447 68.9488 183.044C68.5001 183.693 67.9551 184.138 67.3139 184.379C66.6727 184.619 66.0075 184.682 65.3181 184.566C64.6243 184.457 63.9754 184.193 63.3713 183.776C63.0179 183.531 62.7022 183.232 62.4243 182.879C62.1464 182.525 61.9029 182.19 61.6937 181.875C61.4736 181.561 61.2768 181.344 61.1033 181.224C60.9234 181.1 60.7383 181.086 60.5481 181.183C60.3535 181.285 60.1957 181.39 60.0747 181.496L59.7374 181.263L62.5564 177.186L62.8938 177.419C62.5187 178.071 62.2883 178.748 62.2028 179.449C62.1108 180.145 62.1928 180.81 62.4486 181.442C62.6981 182.071 63.1569 182.616 63.8252 183.078C64.1722 183.318 64.5575 183.475 64.981 183.549C65.3981 183.619 65.8027 183.59 66.195 183.463C66.5808 183.33 66.9003 183.081 67.1536 182.715C67.4512 182.284 67.5591 181.799 67.4773 181.258C67.389 180.712 67.1962 180.132 66.8988 179.518C66.5951 178.9 66.2678 178.261 65.9171 177.6C65.5555 176.942 65.2482 176.273 64.9953 175.595C64.7315 174.919 64.5987 174.252 64.5968 173.596C64.5885 172.935 64.7976 172.296 65.2241 171.679ZM42.8879 152.211C44.2115 151.281 45.5165 150.795 46.8029 150.751C48.0784 150.705 49.2846 151.023 50.4216 151.704C51.5522 152.39 52.5596 153.363 53.4439 154.622L57.1338 159.878L56.7981 160.114C56.4525 159.621 56.1519 159.288 55.8963 159.115C55.6407 158.941 55.3635 158.906 55.0647 159.011C54.7615 159.11 54.3701 159.327 53.8905 159.664L46.2751 165.01C45.7764 165.36 45.427 165.658 45.227 165.903C45.0162 166.147 44.9522 166.416 45.0352 166.711C45.1117 167.01 45.3273 167.413 45.682 167.918L45.3751 168.133L42.0218 163.357C41.326 162.366 40.7756 161.378 40.3703 160.393C39.9543 159.406 39.7424 158.438 39.7347 157.488C39.7161 156.537 39.9584 155.618 40.4615 154.73C40.9537 153.841 41.7625 153.001 42.8879 152.211ZM44.3286 154.12C43.3631 154.798 42.6119 155.597 42.0749 156.518C41.5334 157.433 41.2761 158.406 41.3032 159.437C41.3238 160.473 41.6954 161.505 42.4182 162.535C42.6336 162.841 42.8724 163.127 43.1346 163.392C43.3858 163.655 43.6585 163.907 43.9526 164.149L53.937 157.14C53.8027 156.785 53.6512 156.434 53.4824 156.084C53.3136 155.735 53.1237 155.41 52.9127 155.11C52.1945 154.087 51.351 153.395 50.3821 153.035C49.4069 152.679 48.3939 152.602 47.3433 152.806C46.2926 153.009 45.2878 153.447 44.3286 154.12ZM44.0124 139.144L46.5146 144.764L46.1399 144.931C45.8889 144.367 45.6562 143.979 45.4419 143.766C45.2173 143.55 44.9483 143.465 44.635 143.51C44.3217 143.555 43.901 143.696 43.3728 143.931L34.8725 147.715C34.3372 147.953 33.9443 148.175 33.6937 148.381C33.4432 148.587 33.3267 148.844 33.3444 149.152C33.3517 149.457 33.4809 149.891 33.7319 150.455L33.3893 150.607L30.8871 144.987L31.2297 144.834C31.4744 145.384 31.7106 145.77 31.9384 145.994C32.1559 146.214 32.4264 146.303 32.75 146.261C33.0737 146.22 33.5031 146.08 34.0384 145.842L42.5388 142.057C43.0669 141.822 43.4527 141.603 43.6961 141.401C43.9395 141.198 44.0559 140.941 44.0454 140.63C44.0246 140.314 43.8887 139.874 43.6377 139.31L44.0124 139.144ZM36.3587 126.455C37.162 126.253 37.9114 126.287 38.6069 126.556C39.2948 126.827 39.8814 127.256 40.3666 127.843C40.8424 128.425 41.1752 129.094 41.3649 129.852C41.4882 130.345 41.5433 130.855 41.5302 131.381C41.5152 131.901 41.4898 132.378 41.4539 132.814C41.4162 133.242 41.4267 133.574 41.4855 133.809C41.5424 134.036 41.6732 134.172 41.8779 134.218C42.0806 134.256 42.2758 134.263 42.4634 134.24L42.5573 134.615L37.7372 135.822L37.6433 135.447C38.7971 135.005 39.6591 134.346 40.2291 133.471C40.7897 132.59 40.9144 131.527 40.6033 130.285C40.4914 129.837 40.2989 129.423 40.026 129.04C39.7454 128.659 39.4005 128.375 38.9911 128.188C38.5818 128 38.1232 127.97 37.6155 128.097C37.0774 128.232 36.6521 128.527 36.3396 128.984C36.0271 129.441 35.7743 129.991 35.5812 130.636C35.3806 131.282 35.1932 131.965 35.0191 132.685C34.8431 133.398 34.6283 134.084 34.3746 134.743C34.1209 135.403 33.7809 135.975 33.3548 136.46C32.9286 136.945 32.3631 137.276 31.6583 137.453C30.8928 137.644 30.1898 137.619 29.5493 137.376C28.9088 137.134 28.3677 136.742 27.926 136.2C27.4768 135.66 27.163 135.034 26.9847 134.322C26.8803 133.905 26.8404 133.472 26.8649 133.023C26.8894 132.574 26.9272 132.162 26.9782 131.787C27.0198 131.406 27.0149 131.113 26.9637 130.908C26.9106 130.696 26.7808 130.564 26.5742 130.511C26.3601 130.46 26.1725 130.434 26.0114 130.434L25.9118 130.036L30.7205 128.832L30.8201 129.23C30.1077 129.473 29.4882 129.829 28.9616 130.3C28.4331 130.762 28.0562 131.315 27.8309 131.96C27.6037 132.596 27.5888 133.309 27.7861 134.097C27.8886 134.506 28.0744 134.879 28.3435 135.214C28.6108 135.542 28.934 135.787 29.313 135.95C29.6901 136.105 30.0946 136.129 30.5266 136.02C31.0344 135.893 31.436 135.6 31.7314 135.139C32.025 134.671 32.2626 134.108 32.4443 133.45C32.6241 132.785 32.8001 132.089 32.9723 131.361C33.135 130.628 33.3451 129.923 33.6026 129.246C33.8506 128.564 34.1906 127.976 34.6224 127.481C35.0524 126.979 35.6311 126.637 36.3587 126.455ZM34.9244 108.762L35.1376 108.427C36.3194 109.035 37.2561 109.821 37.9478 110.786C38.6314 111.744 38.9924 112.898 39.0307 114.249C39.0709 115.67 38.7858 116.917 38.1753 117.99C37.5568 119.054 36.7052 119.891 35.6204 120.5C34.5277 121.102 33.2901 121.422 31.9079 121.461C30.4866 121.502 29.1855 121.234 28.0046 120.658C26.8158 120.074 25.8622 119.245 25.144 118.171C24.418 117.098 24.0343 115.831 23.9929 114.37C23.9719 113.628 24.0474 112.981 24.2193 112.429C24.391 111.87 24.6044 111.266 24.8596 110.618C24.8514 110.329 24.7323 110.125 24.5023 110.006C24.2723 109.888 24.0589 109.804 23.8621 109.755L23.8515 109.38L28.7042 108.938L28.7128 109.242C27.5282 109.635 26.5601 110.226 25.8087 111.013C25.057 111.792 24.6999 112.842 24.7373 114.162C24.7652 115.146 24.9954 115.96 25.4279 116.604C25.8601 117.24 26.4254 117.744 27.1237 118.115C27.8139 118.479 28.5714 118.731 29.396 118.871C30.2206 119.012 31.043 119.071 31.8629 119.048C33.0031 119.015 34.0522 118.802 35.0101 118.407C35.9601 118.005 36.7128 117.402 37.2683 116.597C37.8237 115.784 38.0834 114.745 38.0475 113.48C38.025 112.683 37.8848 112.011 37.627 111.463C37.3692 110.916 37.0116 110.434 36.5543 110.017C36.089 109.592 35.5457 109.174 34.9244 108.762ZM34.2523 89.1747C35.2533 89.3883 36.1656 89.7547 36.9895 90.274C37.8149 90.7856 38.5101 91.4212 39.075 92.1808C39.6339 92.9311 40.0215 93.7727 40.2378 94.7056C40.4465 95.6368 40.4401 96.622 40.2183 97.6611C39.92 99.0593 39.3246 100.202 38.4322 101.09C37.5338 101.969 36.4626 102.571 35.2188 102.897C33.9751 103.223 32.6808 103.242 31.3361 102.955C29.9837 102.667 28.821 102.107 27.8479 101.277C26.8688 100.437 26.167 99.4202 25.7425 98.2272C25.318 97.0343 25.2533 95.7463 25.5484 94.3634C25.7652 93.3472 26.1565 92.4681 26.7222 91.726C27.2803 90.9824 27.9621 90.3889 28.7676 89.9457C29.5671 89.4932 30.4366 89.1994 31.3761 89.0643C32.3156 88.9293 33.2744 88.9661 34.2523 89.1747ZM33.8861 91.565C33.1145 91.4003 32.3213 91.299 31.5066 91.261C30.6935 91.2153 29.9272 91.2875 29.2077 91.4775C28.4805 91.6658 27.8539 92.0194 27.3278 92.5382C26.8033 93.0494 26.4392 93.7826 26.2354 94.7376C26.0479 95.6163 26.0947 96.3892 26.3758 97.0562C26.6508 97.714 27.078 98.2765 27.6574 98.7436C28.2367 99.2107 28.8899 99.5937 29.617 99.8926C30.3457 100.184 31.0692 100.406 31.7874 100.559C32.4903 100.709 33.2461 100.799 34.0548 100.828C34.8635 100.856 35.6428 100.779 36.3929 100.595C37.1447 100.404 37.7956 100.068 38.3458 99.5862C38.8899 99.0952 39.2557 98.4103 39.4431 97.5316C39.6404 96.6071 39.6078 95.8053 39.3452 95.1262C39.0827 94.4471 38.6656 93.8749 38.0939 93.4094C37.5238 92.9363 36.8706 92.5532 36.1343 92.2603C35.3919 91.9582 34.6426 91.7264 33.8861 91.565ZM35.7698 67.3996L36.106 67.5658C35.9304 68.15 35.9379 68.6636 36.1286 69.1065C36.3227 69.5424 36.6111 69.9813 36.9939 70.4233L45.785 80.3523L45.6188 80.6884L32.0945 80.0149C31.441 79.9794 30.9153 80.0201 30.5175 80.1372C30.1197 80.2543 29.7352 80.6089 29.364 81.201L29.0279 81.0348L31.6197 75.7929L31.9559 75.9591C31.8799 76.1481 31.811 76.3668 31.7492 76.6151C31.6804 76.86 31.6657 77.0924 31.7051 77.3123C31.7445 77.5323 31.8903 77.7046 32.1424 77.8292C32.3805 77.947 32.6359 78.021 32.9085 78.0512C33.1742 78.078 33.4853 78.101 33.8417 78.1204L42.9942 78.5671L37.0158 71.8068C36.8788 71.6432 36.6857 71.4344 36.4365 71.1805C36.1838 70.9161 35.9594 70.7354 35.7633 70.6384C35.5392 70.5276 35.3243 70.5216 35.1186 70.6203C34.9163 70.7121 34.7335 70.8526 34.5702 71.042C34.4032 71.221 34.259 71.3893 34.1374 71.5471L33.8013 71.3809L35.7698 67.3996ZM55.0668 59.1698L57.03 62.4395L49.9805 70.9497L49.6646 70.6881C50.0434 70.2308 50.2828 69.856 50.383 69.5637C50.4832 69.2713 50.4459 68.9918 50.271 68.7252C50.0962 68.4587 49.7831 68.1385 49.3319 67.7647L42.1212 61.7917C41.658 61.4079 41.2846 61.1544 41.0012 61.0312C40.7177 60.908 40.4447 60.9253 40.1821 61.0832C39.9245 61.235 39.5988 61.5485 39.2051 62.0238L38.9163 61.7846L45.9658 53.2744L48.4801 55.144L48.2334 55.4418C47.6534 55.1745 47.1842 54.9938 46.8259 54.8998C46.4615 54.8009 46.1185 54.8414 45.7969 55.0214C45.4743 55.1904 45.0863 55.5486 44.6327 56.0961L42.0985 59.1555L46.4664 62.7737L48.4848 60.337C48.8586 59.8858 49.0981 59.511 49.2032 59.2126C49.3024 58.9092 49.28 58.6117 49.1361 58.32C48.9862 58.0234 48.7226 57.6681 48.3452 57.254L48.5919 56.9562L52.4545 60.1558L52.2078 60.4536C51.7247 60.155 51.326 59.9566 51.0117 59.8585C50.6913 59.7554 50.3913 59.7808 50.1116 59.9346C49.826 60.0835 49.4913 60.3896 49.1075 60.8529L47.0891 63.2895L50.726 66.3022C51.1532 66.656 51.5039 66.8756 51.7783 66.9608C52.0466 67.041 52.3701 66.8525 52.7489 66.3953L54.2889 64.5362C54.8221 63.8924 55.1636 63.3333 55.3132 62.8587C55.4679 62.3781 55.4854 61.8854 55.3659 61.3806C55.2514 60.8698 55.0545 60.2502 54.7753 59.5218L55.0668 59.1698ZM71.2214 50.1619L68.1663 52.5137L60.2237 50.1687C60.0275 50.3493 59.8118 50.5302 59.5766 50.7113C59.4775 50.7875 59.3816 50.8614 59.2887 50.9329C59.1973 50.9934 59.1058 51.0539 59.0144 51.1145L61.5521 54.411C61.9095 54.8753 62.2183 55.1996 62.4784 55.3838C62.7448 55.5633 63.032 55.6034 63.3402 55.5043C63.6483 55.4051 64.0408 55.172 64.5174 54.805L64.7676 55.1301L59.8832 58.8901L59.633 58.5651C60.1221 58.1886 60.4478 57.8689 60.6101 57.6059C60.7724 57.3429 60.7916 57.0668 60.6677 56.7778C60.5499 56.4839 60.3123 56.1048 59.9549 55.6405L54.2791 48.2674C53.9121 47.7908 53.6017 47.4579 53.3477 47.2689C53.0952 47.0689 52.821 47.0138 52.5253 47.1034C52.2295 47.1931 51.8371 47.4262 51.348 47.8026L51.1193 47.5055L55.4094 44.2029C55.9046 43.8217 56.4423 43.4571 57.0224 43.1092C57.6086 42.7565 58.207 42.5028 58.8176 42.3483C59.4344 42.189 60.0353 42.1947 60.6203 42.3655C61.2006 42.5301 61.7409 42.9374 62.2413 43.5874C62.9085 44.4541 63.1522 45.3214 62.9724 46.1894C62.7879 47.0511 62.3638 47.8706 61.7001 48.6477L66.5521 50.1479C67.4101 50.4043 68.1665 50.5417 68.8215 50.5601C69.4717 50.5722 70.1883 50.3312 70.9712 49.8369L71.2214 50.1619ZM60.4656 45.1614C59.9032 44.4309 59.2238 44.0222 58.4274 43.9353C57.6371 43.8437 56.8767 44.079 56.1462 44.6414C55.9295 44.8082 55.7217 44.9928 55.5226 45.1953C55.3298 45.3931 55.1331 45.5987 54.9327 45.8122L58.5641 50.5294C58.6836 50.467 58.8517 50.3524 59.0684 50.1856C59.6132 49.7662 60.0791 49.2892 60.4662 48.7546C60.8546 48.2091 61.0717 47.6329 61.1172 47.026C61.1689 46.4144 60.9517 45.7929 60.4656 45.1614ZM89.0008 30.9195C89.3127 31.9025 89.3363 32.7392 89.0718 33.4297C88.8073 34.1201 88.3456 34.6928 87.6867 35.1478C87.0255 35.5953 86.2592 35.9572 85.3879 36.2336C85.105 36.3234 84.8147 36.4032 84.5172 36.473C84.2197 36.5428 83.9136 36.6113 83.5988 36.6784L84.8109 40.4985C84.9881 41.057 85.1674 41.4673 85.3489 41.7294C85.5379 41.9891 85.7904 42.1261 86.1064 42.1406C86.4299 42.1527 86.8746 42.069 87.4406 41.8894L87.5646 42.2804L81.7115 44.1374L81.5875 43.7465C82.1683 43.5622 82.5763 43.3754 82.8113 43.1861C83.0537 42.9944 83.1661 42.7416 83.1484 42.4275C83.1382 42.1111 83.0445 41.6737 82.8673 41.1152L80.0533 32.2462C79.8714 31.6728 79.6971 31.2527 79.5305 30.9859C79.3616 30.7116 79.1228 30.5661 78.8142 30.5493C78.513 30.5301 78.0683 30.6138 77.48 30.8005L77.3666 30.443L82.3596 28.8588C82.9777 28.6627 83.6246 28.5189 84.3005 28.4275C84.974 28.3285 85.6225 28.3318 86.2461 28.4372C86.8697 28.5426 87.4232 28.7891 87.9068 29.1766C88.3904 29.5641 88.7551 30.1451 89.0008 30.9195ZM86.76 31.8395C86.4812 30.9608 85.9894 30.289 85.2846 29.8242C84.5797 29.3593 83.7619 29.2745 82.8311 29.5699C82.6151 29.6384 82.4 29.7353 82.1857 29.8607C81.969 29.9786 81.7549 30.0916 81.5433 30.1998L83.3826 35.997C83.67 35.9468 83.9561 35.8929 84.2411 35.8353C84.5237 35.7702 84.8102 35.6916 85.1007 35.5994C85.6368 35.4293 86.0548 35.1451 86.3546 34.7467C86.6521 34.3408 86.8342 33.8815 86.9009 33.3685C86.9676 32.8555 86.9207 32.3459 86.76 31.8395ZM107.637 34.5634L106.788 38.5889L95.6708 39.6573L95.6315 39.249C96.3003 39.1847 96.8035 39.0304 97.141 38.786C97.4864 38.5409 97.6224 38.0373 97.5492 37.2752L96.594 27.3366C96.5216 26.5823 96.2921 26.1138 95.9057 25.9312C95.527 25.7478 95.0033 25.6883 94.3345 25.7526L94.2964 25.356L100.514 24.7584L100.552 25.1551C99.8676 25.2208 99.3531 25.3801 99.0086 25.633C98.664 25.8859 98.5279 26.3895 98.6004 27.1438L99.5051 36.5575C99.5731 37.2652 99.7431 37.7276 100.015 37.9447C100.287 38.1619 100.777 38.2365 101.485 38.1685L102.919 38.0306C103.837 37.9424 104.561 37.7944 105.09 37.5865C105.62 37.3787 106.042 37.0398 106.358 36.5699C106.682 36.0993 106.986 35.4226 107.27 34.5398L107.637 34.5634ZM126.156 40.0923L120.523 39.337L120.577 38.9305C120.895 38.973 121.22 38.9614 121.552 38.8956C121.885 38.822 122.077 38.5955 122.127 38.2161C122.152 38.0302 122.132 37.7674 122.068 37.4277C122.012 37.0812 121.931 36.7157 121.825 36.331C121.726 35.9473 121.631 35.5957 121.54 35.276C121.449 34.9564 121.381 34.7305 121.336 34.5983L115.819 33.8585C115.749 33.9674 115.62 34.163 115.432 34.4452C115.253 34.7285 115.056 35.0451 114.844 35.395C114.639 35.7459 114.457 36.08 114.296 36.3974C114.135 36.7148 114.043 36.9587 114.02 37.129C113.987 37.3768 114.062 37.58 114.246 37.7386C114.431 37.8895 114.652 38.0058 114.909 38.0876C115.166 38.1694 115.383 38.226 115.56 38.2577L115.505 38.6642L111.01 38.0615L111.065 37.655C111.517 37.6919 111.894 37.6163 112.195 37.4281C112.504 37.2409 112.775 36.9817 113.009 36.6505C113.251 36.3125 113.494 35.943 113.737 35.5421L120.337 24.4971L120.697 24.5454L124.061 37.0211C124.19 37.4719 124.32 37.8834 124.451 38.2557C124.584 38.6203 124.779 38.9264 125.038 39.1738C125.305 39.4146 125.696 39.5853 126.211 39.6858L126.156 40.0923ZM121.148 33.7928L119.499 27.6599L116.247 33.1355L121.148 33.7928ZM148.255 32.6452L148.115 32.9931C147.557 32.7687 147.12 32.6518 146.803 32.6425C146.494 32.6361 146.24 32.7568 146.039 33.0045C145.848 33.2479 145.645 33.6378 145.43 34.1741L140.909 45.4163L140.561 45.2764L136.059 30.9992L132.762 39.1971C132.54 39.7479 132.412 40.1807 132.379 40.4955C132.348 40.803 132.447 41.0578 132.677 41.2599C132.915 41.4649 133.313 41.6796 133.871 41.904L133.718 42.2846L129.075 40.4175L129.228 40.037C129.779 40.2585 130.209 40.3725 130.518 40.3789C130.827 40.3853 131.081 40.2682 131.278 40.0278C131.479 39.7801 131.687 39.388 131.903 38.8516L135.633 29.5774C135.48 28.9939 135.309 28.5294 135.119 28.1837C134.94 27.8338 134.55 27.5378 133.948 27.2959L134.088 26.948L137.35 28.2597L141.486 41.5308L144.582 33.8331C144.797 33.2967 144.917 32.8733 144.941 32.5629C144.967 32.2452 144.864 31.9803 144.629 31.768C144.402 31.5587 144.009 31.3418 143.451 31.1174L143.591 30.7694L148.255 32.6452ZM156.541 50.0557C156.068 50.7357 155.482 51.2033 154.781 51.4585C154.085 51.7073 153.361 51.7702 152.609 51.6473C151.868 51.5224 151.177 51.237 150.535 50.7912C150.118 50.5014 149.742 50.1538 149.405 49.7486C149.075 49.3477 148.779 48.9714 148.52 48.6197C148.266 48.2723 148.04 48.0296 147.841 47.8914C147.649 47.7576 147.461 47.741 147.277 47.8414C147.099 47.9463 146.947 48.0691 146.821 48.2097L146.503 47.989L149.339 43.9088L149.657 44.1295C149.079 45.2215 148.863 46.2846 149.01 47.3191C149.168 48.3515 149.772 49.2334 150.825 49.9646C151.203 50.2276 151.621 50.4134 152.078 50.522C152.54 50.6241 152.987 50.6111 153.418 50.4829C153.85 50.3547 154.215 50.0757 154.514 49.6459C154.83 49.1904 154.956 48.6879 154.891 48.1383C154.826 47.5887 154.654 47.0078 154.375 46.3956C154.101 45.777 153.793 45.1393 153.45 44.4825C153.114 43.8302 152.824 43.1722 152.581 42.5087C152.338 41.8452 152.218 41.1905 152.219 40.5447C152.221 39.8989 152.429 39.2777 152.844 38.6811C153.294 38.0332 153.84 37.5897 154.482 37.3507C155.124 37.1117 155.789 37.0509 156.478 37.1683C157.172 37.2792 157.82 37.5443 158.423 37.9634C158.776 38.2086 159.091 38.5083 159.368 38.8626C159.645 39.2169 159.888 39.5521 160.096 39.8682C160.315 40.1824 160.512 40.3996 160.685 40.52C160.865 40.6448 161.05 40.6593 161.24 40.5632C161.435 40.4608 161.593 40.3566 161.714 40.2506L162.051 40.4847L159.222 44.5552L158.885 44.3211C159.262 43.6696 159.494 42.9936 159.581 42.2931C159.675 41.5971 159.594 40.9323 159.34 40.2989C159.092 39.67 158.635 39.1237 157.968 38.66C157.621 38.4192 157.236 38.2611 156.813 38.1858C156.396 38.1148 155.991 38.1428 155.599 38.2695C155.213 38.4008 154.892 38.6492 154.638 39.0149C154.34 39.4447 154.231 39.9302 154.311 40.4714C154.398 41.0171 154.589 41.5973 154.885 42.212C155.188 42.8311 155.513 43.4713 155.862 44.1326C156.222 44.7919 156.528 45.461 156.779 46.1398C157.041 46.8167 157.173 47.4835 157.173 48.1402C157.18 48.8013 156.969 49.4398 156.541 50.0557Z" fill="#C09E63"/>
</g>
<defs>
<clipPath id="clip0_17_103782">
<rect width="221" height="221" fill="white"/>
</clipPath>
</defs>
</svg>
