<svg width="379" height="393" viewBox="0 0 379 393" fill="none" xmlns="http://www.w3.org/2000/svg">
<g opacity="0.4">
<path d="M91.0001 82.4789C91.0001 86.4883 89.9716 89.9681 87.9147 92.9184C85.8578 95.8309 83.1838 98.0815 79.8927 99.6701C76.6391 101.221 73.1423 101.996 69.4024 101.996C66.9715 101.996 64.5406 101.656 62.1097 100.975C59.7162 100.294 57.5284 99.6134 55.5463 98.9325C53.6016 98.2517 52.0495 97.9113 50.8902 97.9113C49.7682 97.9113 48.9828 98.3652 48.5341 99.2729C48.1227 100.181 47.8609 101.089 47.7487 101.996H45.8975V77.94H47.7487C48.4593 83.8784 50.5162 88.701 53.9194 92.4078C57.3601 96.0768 62.1471 97.9113 68.2805 97.9113C70.487 97.9113 72.6374 97.4952 74.7317 96.6631C76.826 95.7931 78.5464 94.5071 79.8927 92.805C81.2391 91.1029 81.9122 88.9847 81.9122 86.4504C81.9122 83.7649 81.0334 81.4198 79.2757 79.4151C77.5179 77.4104 75.2553 75.5759 72.4878 73.9116C69.7203 72.2095 66.7658 70.5264 63.6244 68.8621C60.5203 67.1978 57.5845 65.3822 54.817 63.4153C52.0495 61.4485 49.7869 59.179 48.0292 56.6069C46.2714 54.0349 45.3926 50.99 45.3926 47.4723C45.3926 43.6521 46.3275 40.3803 48.1975 37.6569C50.0674 34.9335 52.517 32.8532 55.5463 31.4159C58.5756 29.9407 61.8479 29.2031 65.3634 29.2031C67.4203 29.2031 69.4772 29.5246 71.5342 30.1676C73.5911 30.8107 75.461 31.4726 77.1439 32.1534C78.8643 32.7964 80.2293 33.118 81.2391 33.118C82.2862 33.118 83.0529 32.6641 83.5391 31.7563C84.0253 30.8107 84.3619 29.9596 84.5488 29.2031H86.5123V53.2027H84.5488C84.2497 49.5716 83.3147 46.243 81.744 43.2171C80.2106 40.1911 78.0789 37.7704 75.3488 35.9548C72.6561 34.1392 69.365 33.2314 65.4756 33.2314C63.4561 33.2314 61.5114 33.6664 59.6414 34.5364C57.8089 35.4063 56.2943 36.6356 55.0975 38.2243C53.9381 39.8129 53.3585 41.6852 53.3585 43.8412C53.3585 46.3754 54.256 48.6071 56.0512 50.5361C57.8837 52.4652 60.2211 54.2429 63.0634 55.8694C65.9431 57.4958 68.9724 59.1412 72.1512 60.8055C75.3675 62.4319 78.3968 64.2475 81.2391 66.2522C84.1188 68.2191 86.4562 70.5074 88.2513 73.1173C90.0838 75.7272 91.0001 78.8477 91.0001 82.4789Z" fill="#1C1D24"/>
<path d="M75.7766 45.2363C75.7766 52.1104 74.2991 57.8389 71.344 62.4216C68.4217 66.9712 64.4159 70.3917 59.3265 72.683C54.2372 74.9412 48.4583 76.0703 41.9899 76.0703H15V74.3268C17.5283 74.3268 19.3998 74.0944 20.6147 73.6295C21.8296 73.1646 22.6176 72.2845 22.9788 70.9894C23.3728 69.6943 23.5698 67.8014 23.5698 65.3108V25.7595C23.5698 23.1693 23.3892 21.2266 23.028 19.9315C22.6997 18.6031 21.9281 17.7231 20.7132 17.2914C19.4983 16.8265 17.5939 16.594 15 16.594V15H39.5274C44.6167 15 49.3449 15.4981 53.7119 16.4944C58.1117 17.4574 61.9533 19.0846 65.2368 21.376C68.553 23.6342 71.1305 26.7226 72.9693 30.6412C74.8408 34.5266 75.7766 39.3916 75.7766 45.2363ZM65.7293 45.585C65.7293 40.5705 64.7935 36.0043 62.9219 31.8865C61.0832 27.7686 58.3579 24.4976 54.7461 22.0734C51.1343 19.616 46.6853 18.3873 41.3989 18.3873C39.8229 18.3873 38.2632 18.5201 36.72 18.7858C35.2096 19.0182 33.6828 19.3503 32.1396 19.782V71.637C33.6828 72.0355 35.2589 72.3675 36.8678 72.6332C38.4767 72.8989 40.0527 73.0317 41.5959 73.0317C46.8494 73.0317 51.2657 71.7864 54.8446 69.2958C58.4236 66.7719 61.1324 63.4345 62.9712 59.2834C64.8099 55.1324 65.7293 50.5662 65.7293 45.585Z" fill="#1C1D24"/>
</g>
<g opacity="0.4">
<path d="M273 82.4789C273 86.4883 271.972 89.9681 269.915 92.9184C267.858 95.8309 265.184 98.0815 261.893 99.6701C258.639 101.221 255.142 101.996 251.402 101.996C248.972 101.996 246.541 101.656 244.11 100.975C241.716 100.294 239.528 99.6134 237.546 98.9325C235.602 98.2517 234.05 97.9113 232.89 97.9113C231.768 97.9113 230.983 98.3652 230.534 99.2729C230.123 100.181 229.861 101.089 229.749 101.996H227.897V77.94H229.749C230.459 83.8784 232.516 88.701 235.919 92.4078C239.36 96.0768 244.147 97.9113 250.28 97.9113C252.487 97.9113 254.637 97.4952 256.732 96.6631C258.826 95.7931 260.546 94.5071 261.893 92.805C263.239 91.1029 263.912 88.9847 263.912 86.4504C263.912 83.7649 263.033 81.4198 261.276 79.4151C259.518 77.4104 257.255 75.5759 254.488 73.9116C251.72 72.2095 248.766 70.5264 245.624 68.8621C242.52 67.1978 239.585 65.3822 236.817 63.4153C234.05 61.4485 231.787 59.179 230.029 56.6069C228.271 54.0349 227.393 50.99 227.393 47.4723C227.393 43.6521 228.328 40.3803 230.197 37.6569C232.067 34.9335 234.517 32.8532 237.546 31.4159C240.576 29.9407 243.848 29.2031 247.363 29.2031C249.42 29.2031 251.477 29.5246 253.534 30.1676C255.591 30.8107 257.461 31.4726 259.144 32.1534C260.864 32.7964 262.229 33.118 263.239 33.118C264.286 33.118 265.053 32.6641 265.539 31.7563C266.025 30.8107 266.362 29.9596 266.549 29.2031H268.512V53.2027H266.549C266.25 49.5716 265.315 46.243 263.744 43.2171C262.211 40.1911 260.079 37.7704 257.349 35.9548C254.656 34.1392 251.365 33.2314 247.476 33.2314C245.456 33.2314 243.511 33.6664 241.641 34.5364C239.809 35.4063 238.294 36.6356 237.097 38.2243C235.938 39.8129 235.358 41.6852 235.358 43.8412C235.358 46.3754 236.256 48.6071 238.051 50.5361C239.884 52.4652 242.221 54.2429 245.063 55.8694C247.943 57.4958 250.972 59.1412 254.151 60.8055C257.368 62.4319 260.397 64.2475 263.239 66.2522C266.119 68.2191 268.456 70.5074 270.251 73.1173C272.084 75.7272 273 78.8477 273 82.4789Z" fill="#1C1D24"/>
<path d="M257.777 45.2363C257.777 52.1104 256.299 57.8389 253.344 62.4216C250.422 66.9712 246.416 70.3917 241.327 72.683C236.237 74.9412 230.458 76.0703 223.99 76.0703H197V74.3268C199.528 74.3268 201.4 74.0944 202.615 73.6295C203.83 73.1646 204.618 72.2845 204.979 70.9894C205.373 69.6943 205.57 67.8014 205.57 65.3108V25.7595C205.57 23.1693 205.389 21.2266 205.028 19.9315C204.7 18.6031 203.928 17.7231 202.713 17.2914C201.498 16.8265 199.594 16.594 197 16.594V15H221.527C226.617 15 231.345 15.4981 235.712 16.4944C240.112 17.4574 243.953 19.0846 247.237 21.376C250.553 23.6342 253.131 26.7226 254.969 30.6412C256.841 34.5266 257.777 39.3916 257.777 45.2363ZM247.729 45.585C247.729 40.5705 246.793 36.0043 244.922 31.8865C243.083 27.7686 240.358 24.4976 236.746 22.0734C233.134 19.616 228.685 18.3873 223.399 18.3873C221.823 18.3873 220.263 18.5201 218.72 18.7858C217.21 19.0182 215.683 19.3503 214.14 19.782V71.637C215.683 72.0355 217.259 72.3675 218.868 72.6332C220.477 72.8989 222.053 73.0317 223.596 73.0317C228.849 73.0317 233.266 71.7864 236.845 69.2958C240.424 66.7719 243.132 63.4345 244.971 59.2834C246.81 55.1324 247.729 50.5662 247.729 45.585Z" fill="#1C1D24"/>
</g>
<g opacity="0.4">
<path d="M91.0001 256.479C91.0001 260.488 89.9716 263.968 87.9147 266.918C85.8578 269.831 83.1838 272.081 79.8927 273.67C76.6391 275.221 73.1423 275.996 69.4024 275.996C66.9715 275.996 64.5406 275.656 62.1097 274.975C59.7162 274.294 57.5284 273.613 55.5463 272.933C53.6016 272.252 52.0495 271.911 50.8902 271.911C49.7682 271.911 48.9828 272.365 48.5341 273.273C48.1227 274.181 47.8609 275.089 47.7487 275.996H45.8975V251.94H47.7487C48.4593 257.878 50.5162 262.701 53.9194 266.408C57.3601 270.077 62.1471 271.911 68.2805 271.911C70.487 271.911 72.6374 271.495 74.7317 270.663C76.826 269.793 78.5464 268.507 79.8927 266.805C81.2391 265.103 81.9122 262.985 81.9122 260.45C81.9122 257.765 81.0334 255.42 79.2757 253.415C77.5179 251.41 75.2553 249.576 72.4878 247.912C69.7203 246.21 66.7658 244.526 63.6244 242.862C60.5203 241.198 57.5845 239.382 54.817 237.415C52.0495 235.448 49.7869 233.179 48.0292 230.607C46.2714 228.035 45.3926 224.99 45.3926 221.472C45.3926 217.652 46.3275 214.38 48.1975 211.657C50.0674 208.934 52.517 206.853 55.5463 205.416C58.5756 203.941 61.8479 203.203 65.3634 203.203C67.4203 203.203 69.4772 203.525 71.5342 204.168C73.5911 204.811 75.461 205.473 77.1439 206.153C78.8643 206.796 80.2293 207.118 81.2391 207.118C82.2862 207.118 83.0529 206.664 83.5391 205.756C84.0253 204.811 84.3619 203.96 84.5488 203.203H86.5123V227.203H84.5488C84.2497 223.572 83.3147 220.243 81.744 217.217C80.2106 214.191 78.0789 211.77 75.3488 209.955C72.6561 208.139 69.365 207.231 65.4756 207.231C63.4561 207.231 61.5114 207.666 59.6414 208.536C57.8089 209.406 56.2943 210.636 55.0975 212.224C53.9381 213.813 53.3585 215.685 53.3585 217.841C53.3585 220.375 54.256 222.607 56.0512 224.536C57.8837 226.465 60.2211 228.243 63.0634 229.869C65.9431 231.496 68.9724 233.141 72.1512 234.805C75.3675 236.432 78.3968 238.247 81.2391 240.252C84.1188 242.219 86.4562 244.507 88.2513 247.117C90.0838 249.727 91.0001 252.848 91.0001 256.479Z" fill="#1C1D24"/>
<path d="M75.7766 219.236C75.7766 226.11 74.2991 231.839 71.344 236.422C68.4217 240.971 64.4159 244.392 59.3265 246.683C54.2372 248.941 48.4583 250.07 41.9899 250.07H15V248.327C17.5283 248.327 19.3998 248.094 20.6147 247.629C21.8296 247.165 22.6176 246.285 22.9788 244.989C23.3728 243.694 23.5698 241.801 23.5698 239.311V199.76C23.5698 197.169 23.3892 195.227 23.028 193.931C22.6997 192.603 21.9281 191.723 20.7132 191.291C19.4983 190.826 17.5939 190.594 15 190.594V189H39.5274C44.6167 189 49.3449 189.498 53.7119 190.494C58.1117 191.457 61.9533 193.085 65.2368 195.376C68.553 197.634 71.1305 200.723 72.9693 204.641C74.8408 208.527 75.7766 213.392 75.7766 219.236ZM65.7293 219.585C65.7293 214.57 64.7935 210.004 62.9219 205.886C61.0832 201.769 58.3579 198.498 54.7461 196.073C51.1343 193.616 46.6853 192.387 41.3989 192.387C39.8229 192.387 38.2632 192.52 36.72 192.786C35.2096 193.018 33.6828 193.35 32.1396 193.782V245.637C33.6828 246.035 35.2589 246.368 36.8678 246.633C38.4767 246.899 40.0527 247.032 41.5959 247.032C46.8494 247.032 51.2657 245.786 54.8446 243.296C58.4236 240.772 61.1324 237.434 62.9712 233.283C64.8099 229.132 65.7293 224.566 65.7293 219.585Z" fill="#1C1D24"/>
</g>
<g opacity="0.4">
<path d="M273 256.479C273 260.488 271.972 263.968 269.915 266.918C267.858 269.831 265.184 272.081 261.893 273.67C258.639 275.221 255.142 275.996 251.402 275.996C248.972 275.996 246.541 275.656 244.11 274.975C241.716 274.294 239.528 273.613 237.546 272.933C235.602 272.252 234.05 271.911 232.89 271.911C231.768 271.911 230.983 272.365 230.534 273.273C230.123 274.181 229.861 275.089 229.749 275.996H227.897V251.94H229.749C230.459 257.878 232.516 262.701 235.919 266.408C239.36 270.077 244.147 271.911 250.28 271.911C252.487 271.911 254.637 271.495 256.732 270.663C258.826 269.793 260.546 268.507 261.893 266.805C263.239 265.103 263.912 262.985 263.912 260.45C263.912 257.765 263.033 255.42 261.276 253.415C259.518 251.41 257.255 249.576 254.488 247.912C251.72 246.21 248.766 244.526 245.624 242.862C242.52 241.198 239.585 239.382 236.817 237.415C234.05 235.448 231.787 233.179 230.029 230.607C228.271 228.035 227.393 224.99 227.393 221.472C227.393 217.652 228.328 214.38 230.197 211.657C232.067 208.934 234.517 206.853 237.546 205.416C240.576 203.941 243.848 203.203 247.363 203.203C249.42 203.203 251.477 203.525 253.534 204.168C255.591 204.811 257.461 205.473 259.144 206.153C260.864 206.796 262.229 207.118 263.239 207.118C264.286 207.118 265.053 206.664 265.539 205.756C266.025 204.811 266.362 203.96 266.549 203.203H268.512V227.203H266.549C266.25 223.572 265.315 220.243 263.744 217.217C262.211 214.191 260.079 211.77 257.349 209.955C254.656 208.139 251.365 207.231 247.476 207.231C245.456 207.231 243.511 207.666 241.641 208.536C239.809 209.406 238.294 210.636 237.097 212.224C235.938 213.813 235.358 215.685 235.358 217.841C235.358 220.375 236.256 222.607 238.051 224.536C239.884 226.465 242.221 228.243 245.063 229.869C247.943 231.496 250.972 233.141 254.151 234.805C257.368 236.432 260.397 238.247 263.239 240.252C266.119 242.219 268.456 244.507 270.251 247.117C272.084 249.727 273 252.848 273 256.479Z" fill="#1C1D24"/>
<path d="M257.777 219.236C257.777 226.11 256.299 231.839 253.344 236.422C250.422 240.971 246.416 244.392 241.327 246.683C236.237 248.941 230.458 250.07 223.99 250.07H197V248.327C199.528 248.327 201.4 248.094 202.615 247.629C203.83 247.165 204.618 246.285 204.979 244.989C205.373 243.694 205.57 241.801 205.57 239.311V199.76C205.57 197.169 205.389 195.227 205.028 193.931C204.7 192.603 203.928 191.723 202.713 191.291C201.498 190.826 199.594 190.594 197 190.594V189H221.527C226.617 189 231.345 189.498 235.712 190.494C240.112 191.457 243.953 193.085 247.237 195.376C250.553 197.634 253.131 200.723 254.969 204.641C256.841 208.527 257.777 213.392 257.777 219.236ZM247.729 219.585C247.729 214.57 246.793 210.004 244.922 205.886C243.083 201.769 240.358 198.498 236.746 196.073C233.134 193.616 228.685 192.387 223.399 192.387C221.823 192.387 220.263 192.52 218.72 192.786C217.21 193.018 215.683 193.35 214.14 193.782V245.637C215.683 246.035 217.259 246.368 218.868 246.633C220.477 246.899 222.053 247.032 223.596 247.032C228.849 247.032 233.266 245.786 236.845 243.296C240.424 240.772 243.132 237.434 244.971 233.283C246.81 229.132 247.729 224.566 247.729 219.585Z" fill="#1C1D24"/>
</g>
<g opacity="0.4">
<path d="M364 358.479C364 362.488 362.972 365.968 360.915 368.918C358.858 371.831 356.184 374.081 352.893 375.67C349.639 377.221 346.142 377.996 342.402 377.996C339.972 377.996 337.541 377.656 335.11 376.975C332.716 376.294 330.528 375.613 328.546 374.933C326.602 374.252 325.05 373.911 323.89 373.911C322.768 373.911 321.983 374.365 321.534 375.273C321.123 376.181 320.861 377.089 320.749 377.996H318.897V353.94H320.749C321.459 359.878 323.516 364.701 326.919 368.408C330.36 372.077 335.147 373.911 341.28 373.911C343.487 373.911 345.637 373.495 347.732 372.663C349.826 371.793 351.546 370.507 352.893 368.805C354.239 367.103 354.912 364.985 354.912 362.45C354.912 359.765 354.033 357.42 352.276 355.415C350.518 353.41 348.255 351.576 345.488 349.912C342.72 348.21 339.766 346.526 336.624 344.862C333.52 343.198 330.585 341.382 327.817 339.415C325.05 337.448 322.787 335.179 321.029 332.607C319.271 330.035 318.393 326.99 318.393 323.472C318.393 319.652 319.328 316.38 321.197 313.657C323.067 310.934 325.517 308.853 328.546 307.416C331.576 305.941 334.848 305.203 338.363 305.203C340.42 305.203 342.477 305.525 344.534 306.168C346.591 306.811 348.461 307.473 350.144 308.153C351.864 308.796 353.229 309.118 354.239 309.118C355.286 309.118 356.053 308.664 356.539 307.756C357.025 306.811 357.362 305.96 357.549 305.203H359.512V329.203H357.549C357.25 325.572 356.315 322.243 354.744 319.217C353.211 316.191 351.079 313.77 348.349 311.955C345.656 310.139 342.365 309.231 338.476 309.231C336.456 309.231 334.511 309.666 332.641 310.536C330.809 311.406 329.294 312.636 328.097 314.224C326.938 315.813 326.358 317.685 326.358 319.841C326.358 322.375 327.256 324.607 329.051 326.536C330.884 328.465 333.221 330.243 336.063 331.869C338.943 333.496 341.972 335.141 345.151 336.805C348.368 338.432 351.397 340.247 354.239 342.252C357.119 344.219 359.456 346.507 361.251 349.117C363.084 351.727 364 354.848 364 358.479Z" fill="#1C1D24"/>
<path d="M348.777 321.236C348.777 328.11 347.299 333.839 344.344 338.422C341.422 342.971 337.416 346.392 332.327 348.683C327.237 350.941 321.458 352.07 314.99 352.07H288V350.327C290.528 350.327 292.4 350.094 293.615 349.629C294.83 349.165 295.618 348.285 295.979 346.989C296.373 345.694 296.57 343.801 296.57 341.311V301.76C296.57 299.169 296.389 297.227 296.028 295.931C295.7 294.603 294.928 293.723 293.713 293.291C292.498 292.826 290.594 292.594 288 292.594V291H312.527C317.617 291 322.345 291.498 326.712 292.494C331.112 293.457 334.953 295.085 338.237 297.376C341.553 299.634 344.131 302.723 345.969 306.641C347.841 310.527 348.777 315.392 348.777 321.236ZM338.729 321.585C338.729 316.57 337.793 312.004 335.922 307.886C334.083 303.769 331.358 300.498 327.746 298.073C324.134 295.616 319.685 294.387 314.399 294.387C312.823 294.387 311.263 294.52 309.72 294.786C308.21 295.018 306.683 295.35 305.14 295.782V347.637C306.683 348.035 308.259 348.368 309.868 348.633C311.477 348.899 313.053 349.032 314.596 349.032C319.849 349.032 324.266 347.786 327.845 345.296C331.424 342.772 334.132 339.434 335.971 335.283C337.81 331.132 338.729 326.566 338.729 321.585Z" fill="#1C1D24"/>
</g>
<g opacity="0.4">
<path d="M182 169.479C182 173.488 180.972 176.968 178.915 179.918C176.858 182.831 174.184 185.081 170.893 186.67C167.639 188.221 164.142 188.996 160.402 188.996C157.972 188.996 155.541 188.656 153.11 187.975C150.716 187.294 148.528 186.613 146.546 185.933C144.602 185.252 143.05 184.911 141.89 184.911C140.768 184.911 139.983 185.365 139.534 186.273C139.123 187.181 138.861 188.089 138.749 188.996H136.897V164.94H138.749C139.459 170.878 141.516 175.701 144.919 179.408C148.36 183.077 153.147 184.911 159.28 184.911C161.487 184.911 163.637 184.495 165.732 183.663C167.826 182.793 169.546 181.507 170.893 179.805C172.239 178.103 172.912 175.985 172.912 173.45C172.912 170.765 172.033 168.42 170.276 166.415C168.518 164.41 166.255 162.576 163.488 160.912C160.72 159.21 157.766 157.526 154.624 155.862C151.52 154.198 148.585 152.382 145.817 150.415C143.05 148.448 140.787 146.179 139.029 143.607C137.271 141.035 136.393 137.99 136.393 134.472C136.393 130.652 137.328 127.38 139.197 124.657C141.067 121.934 143.517 119.853 146.546 118.416C149.576 116.941 152.848 116.203 156.363 116.203C158.42 116.203 160.477 116.525 162.534 117.168C164.591 117.811 166.461 118.473 168.144 119.153C169.864 119.796 171.229 120.118 172.239 120.118C173.286 120.118 174.053 119.664 174.539 118.756C175.025 117.811 175.362 116.96 175.549 116.203H177.512V140.203H175.549C175.25 136.572 174.315 133.243 172.744 130.217C171.211 127.191 169.079 124.77 166.349 122.955C163.656 121.139 160.365 120.231 156.476 120.231C154.456 120.231 152.511 120.666 150.641 121.536C148.809 122.406 147.294 123.636 146.097 125.224C144.938 126.813 144.358 128.685 144.358 130.841C144.358 133.375 145.256 135.607 147.051 137.536C148.884 139.465 151.221 141.243 154.063 142.869C156.943 144.496 159.972 146.141 163.151 147.805C166.368 149.432 169.397 151.247 172.239 153.252C175.119 155.219 177.456 157.507 179.251 160.117C181.084 162.727 182 165.848 182 169.479Z" fill="#1C1D24"/>
<path d="M166.777 132.236C166.777 139.11 165.299 144.839 162.344 149.422C159.422 153.971 155.416 157.392 150.327 159.683C145.237 161.941 139.458 163.07 132.99 163.07H106V161.327C108.528 161.327 110.4 161.094 111.615 160.629C112.83 160.165 113.618 159.285 113.979 157.989C114.373 156.694 114.57 154.801 114.57 152.311V112.76C114.57 110.169 114.389 108.227 114.028 106.931C113.7 105.603 112.928 104.723 111.713 104.291C110.498 103.826 108.594 103.594 106 103.594V102H130.527C135.617 102 140.345 102.498 144.712 103.494C149.112 104.457 152.953 106.085 156.237 108.376C159.553 110.634 162.131 113.723 163.969 117.641C165.841 121.527 166.777 126.392 166.777 132.236ZM156.729 132.585C156.729 127.57 155.793 123.004 153.922 118.886C152.083 114.769 149.358 111.498 145.746 109.073C142.134 106.616 137.685 105.387 132.399 105.387C130.823 105.387 129.263 105.52 127.72 105.786C126.21 106.018 124.683 106.35 123.14 106.782V158.637C124.683 159.035 126.259 159.368 127.868 159.633C129.477 159.899 131.053 160.032 132.596 160.032C137.849 160.032 142.266 158.786 145.845 156.296C149.424 153.772 152.132 150.434 153.971 146.283C155.81 142.132 156.729 137.566 156.729 132.585Z" fill="#1C1D24"/>
</g>
<g opacity="0.4">
<path d="M364 169.479C364 173.488 362.972 176.968 360.915 179.918C358.858 182.831 356.184 185.081 352.893 186.67C349.639 188.221 346.142 188.996 342.402 188.996C339.972 188.996 337.541 188.656 335.11 187.975C332.716 187.294 330.528 186.613 328.546 185.933C326.602 185.252 325.05 184.911 323.89 184.911C322.768 184.911 321.983 185.365 321.534 186.273C321.123 187.181 320.861 188.089 320.749 188.996H318.897V164.94H320.749C321.459 170.878 323.516 175.701 326.919 179.408C330.36 183.077 335.147 184.911 341.28 184.911C343.487 184.911 345.637 184.495 347.732 183.663C349.826 182.793 351.546 181.507 352.893 179.805C354.239 178.103 354.912 175.985 354.912 173.45C354.912 170.765 354.033 168.42 352.276 166.415C350.518 164.41 348.255 162.576 345.488 160.912C342.72 159.21 339.766 157.526 336.624 155.862C333.52 154.198 330.585 152.382 327.817 150.415C325.05 148.448 322.787 146.179 321.029 143.607C319.271 141.035 318.393 137.99 318.393 134.472C318.393 130.652 319.328 127.38 321.197 124.657C323.067 121.934 325.517 119.853 328.546 118.416C331.576 116.941 334.848 116.203 338.363 116.203C340.42 116.203 342.477 116.525 344.534 117.168C346.591 117.811 348.461 118.473 350.144 119.153C351.864 119.796 353.229 120.118 354.239 120.118C355.286 120.118 356.053 119.664 356.539 118.756C357.025 117.811 357.362 116.96 357.549 116.203H359.512V140.203H357.549C357.25 136.572 356.315 133.243 354.744 130.217C353.211 127.191 351.079 124.77 348.349 122.955C345.656 121.139 342.365 120.231 338.476 120.231C336.456 120.231 334.511 120.666 332.641 121.536C330.809 122.406 329.294 123.636 328.097 125.224C326.938 126.813 326.358 128.685 326.358 130.841C326.358 133.375 327.256 135.607 329.051 137.536C330.884 139.465 333.221 141.243 336.063 142.869C338.943 144.496 341.972 146.141 345.151 147.805C348.368 149.432 351.397 151.247 354.239 153.252C357.119 155.219 359.456 157.507 361.251 160.117C363.084 162.727 364 165.848 364 169.479Z" fill="#1C1D24"/>
<path d="M348.777 132.236C348.777 139.11 347.299 144.839 344.344 149.422C341.422 153.971 337.416 157.392 332.327 159.683C327.237 161.941 321.458 163.07 314.99 163.07H288V161.327C290.528 161.327 292.4 161.094 293.615 160.629C294.83 160.165 295.618 159.285 295.979 157.989C296.373 156.694 296.57 154.801 296.57 152.311V112.76C296.57 110.169 296.389 108.227 296.028 106.931C295.7 105.603 294.928 104.723 293.713 104.291C292.498 103.826 290.594 103.594 288 103.594V102H312.527C317.617 102 322.345 102.498 326.712 103.494C331.112 104.457 334.953 106.085 338.237 108.376C341.553 110.634 344.131 113.723 345.969 117.641C347.841 121.527 348.777 126.392 348.777 132.236ZM338.729 132.585C338.729 127.57 337.793 123.004 335.922 118.886C334.083 114.769 331.358 111.498 327.746 109.073C324.134 106.616 319.685 105.387 314.399 105.387C312.823 105.387 311.263 105.52 309.72 105.786C308.21 106.018 306.683 106.35 305.14 106.782V158.637C306.683 159.035 308.259 159.368 309.868 159.633C311.477 159.899 313.053 160.032 314.596 160.032C319.849 160.032 324.266 158.786 327.845 156.296C331.424 153.772 334.132 150.434 335.971 146.283C337.81 142.132 338.729 137.566 338.729 132.585Z" fill="#1C1D24"/>
</g>
<g opacity="0.4">
<path d="M182 358.479C182 362.488 180.972 365.968 178.915 368.918C176.858 371.831 174.184 374.081 170.893 375.67C167.639 377.221 164.142 377.996 160.402 377.996C157.972 377.996 155.541 377.656 153.11 376.975C150.716 376.294 148.528 375.613 146.546 374.933C144.602 374.252 143.05 373.911 141.89 373.911C140.768 373.911 139.983 374.365 139.534 375.273C139.123 376.181 138.861 377.089 138.749 377.996H136.897V353.94H138.749C139.459 359.878 141.516 364.701 144.919 368.408C148.36 372.077 153.147 373.911 159.28 373.911C161.487 373.911 163.637 373.495 165.732 372.663C167.826 371.793 169.546 370.507 170.893 368.805C172.239 367.103 172.912 364.985 172.912 362.45C172.912 359.765 172.033 357.42 170.276 355.415C168.518 353.41 166.255 351.576 163.488 349.912C160.72 348.21 157.766 346.526 154.624 344.862C151.52 343.198 148.585 341.382 145.817 339.415C143.05 337.448 140.787 335.179 139.029 332.607C137.271 330.035 136.393 326.99 136.393 323.472C136.393 319.652 137.328 316.38 139.197 313.657C141.067 310.934 143.517 308.853 146.546 307.416C149.576 305.941 152.848 305.203 156.363 305.203C158.42 305.203 160.477 305.525 162.534 306.168C164.591 306.811 166.461 307.473 168.144 308.153C169.864 308.796 171.229 309.118 172.239 309.118C173.286 309.118 174.053 308.664 174.539 307.756C175.025 306.811 175.362 305.96 175.549 305.203H177.512V329.203H175.549C175.25 325.572 174.315 322.243 172.744 319.217C171.211 316.191 169.079 313.77 166.349 311.955C163.656 310.139 160.365 309.231 156.476 309.231C154.456 309.231 152.511 309.666 150.641 310.536C148.809 311.406 147.294 312.636 146.097 314.224C144.938 315.813 144.358 317.685 144.358 319.841C144.358 322.375 145.256 324.607 147.051 326.536C148.884 328.465 151.221 330.243 154.063 331.869C156.943 333.496 159.972 335.141 163.151 336.805C166.368 338.432 169.397 340.247 172.239 342.252C175.119 344.219 177.456 346.507 179.251 349.117C181.084 351.727 182 354.848 182 358.479Z" fill="#1C1D24"/>
<path d="M166.777 321.236C166.777 328.11 165.299 333.839 162.344 338.422C159.422 342.971 155.416 346.392 150.327 348.683C145.237 350.941 139.458 352.07 132.99 352.07H106V350.327C108.528 350.327 110.4 350.094 111.615 349.629C112.83 349.165 113.618 348.285 113.979 346.989C114.373 345.694 114.57 343.801 114.57 341.311V301.76C114.57 299.169 114.389 297.227 114.028 295.931C113.7 294.603 112.928 293.723 111.713 293.291C110.498 292.826 108.594 292.594 106 292.594V291H130.527C135.617 291 140.345 291.498 144.712 292.494C149.112 293.457 152.953 295.085 156.237 297.376C159.553 299.634 162.131 302.723 163.969 306.641C165.841 310.527 166.777 315.392 166.777 321.236ZM156.729 321.585C156.729 316.57 155.793 312.004 153.922 307.886C152.083 303.769 149.358 300.498 145.746 298.073C142.134 295.616 137.685 294.387 132.399 294.387C130.823 294.387 129.263 294.52 127.72 294.786C126.21 295.018 124.683 295.35 123.14 295.782V347.637C124.683 348.035 126.259 348.368 127.868 348.633C129.477 348.899 131.053 349.032 132.596 349.032C137.849 349.032 142.266 347.786 145.845 345.296C149.424 342.772 152.132 339.434 153.971 335.283C155.81 331.132 156.729 326.566 156.729 321.585Z" fill="#1C1D24"/>
</g>
</svg>
