<svg width="892" height="1011" viewBox="0 0 892 1011" fill="none" xmlns="http://www.w3.org/2000/svg">
<rect x="1.5" y="1.5" width="889" height="1008" stroke="#02030A"/>
<path opacity="0.05" d="M838.945 165.266V444.606H814.992L814.954 444.147C811.456 402.097 800.524 363.558 782.163 328.527L782.161 328.523C764.243 293.504 739.337 265.495 707.44 244.487L707.438 244.485C676.002 223.494 637.564 212.984 592.095 212.984C568.519 212.984 545.816 218.013 523.982 228.073C502.595 238.129 484.924 252.335 470.96 270.692C457.455 289.022 450.697 310.628 450.697 335.533C450.697 364.789 461.153 390.55 482.09 412.833C503.509 435.163 530.84 455.752 564.091 474.597L570.434 478.136C602.247 495.842 635.601 513.741 670.494 531.833L674.021 533.609C710.393 552.025 744.71 572.5 776.973 595.035C810.739 617.876 838.158 644.458 859.218 674.78H859.219C880.746 705.144 891.5 741.44 891.5 783.642C891.5 830.232 879.431 870.695 855.277 905.005L855.276 905.007C831.138 938.856 799.757 965.012 761.143 983.472L761.141 983.473C722.969 1001.49 681.947 1010.5 638.08 1010.5C609.566 1010.5 581.054 1006.54 552.545 998.637L552.543 998.636C524.507 990.738 498.878 982.839 475.656 974.939L475.653 974.938C452.898 967.049 434.785 963.122 421.292 963.122C414.789 963.122 409.295 964.424 404.788 967.004C400.289 969.579 396.742 973.444 394.154 978.622C389.356 989.108 386.307 999.588 385 1010.06L384.945 1010.5H362.324V730.501H384.946L385 730.94C393.311 799.726 417.361 855.552 457.129 898.451L458.074 899.441C498.181 941.211 553.781 962.122 624.941 962.122C650.717 962.122 675.837 957.309 700.306 947.681C724.754 937.622 744.827 922.758 760.536 903.089C776.221 883.451 784.076 859 784.076 829.703C784.076 798.679 773.829 771.599 753.326 748.44C732.783 725.237 706.33 703.992 673.956 684.711L673.951 684.709C641.552 664.975 606.963 645.458 570.184 626.161L570.182 626.16C533.814 606.849 499.416 585.782 466.989 562.958C434.537 540.116 407.997 513.754 387.377 483.871C366.728 453.947 356.412 418.532 356.412 377.646C356.412 333.255 367.383 295.206 389.348 263.525C411.297 231.867 440.052 207.682 475.604 190.976C511.149 173.834 549.543 165.266 590.781 165.266C614.921 165.266 639.058 169.003 663.191 176.475C687.284 183.934 709.191 191.613 728.91 199.514H728.911C749.039 206.964 764.958 210.669 776.693 210.669C782.752 210.669 787.971 209.369 792.371 206.789C796.77 204.21 800.379 200.335 803.188 195.139C808.868 184.198 812.791 174.367 814.968 165.645L815.062 165.266H838.945Z" fill="#C09E63" stroke="#C09E63"/>
<path opacity="0.05" d="M288.229 0.5C347.858 0.500017 403.263 6.27996 454.442 17.8428L456.855 18.3721C507.426 29.6153 551.669 48.3338 589.577 74.5322H589.578C628.492 100.775 658.733 136.663 680.301 182.183L681.321 184.308C702.6 229.101 713.227 284.896 713.227 351.671C713.227 431.467 695.907 498.004 661.236 551.253L661.237 551.254C626.961 604.102 579.975 643.835 520.291 670.447L520.288 670.448C460.616 696.67 392.873 709.775 317.066 709.775H0.5V688.555H1C30.5928 688.555 52.4352 685.858 66.5742 680.499C80.648 675.165 89.7662 665.085 93.9541 650.213L93.958 650.201C98.55 635.253 100.856 613.359 100.856 584.489V125.786C100.856 95.757 98.7417 73.2817 94.5312 58.3291L94.5293 58.3223L94.5273 58.3145C90.7204 43.0616 81.7968 32.9945 67.7383 28.0469L67.7275 28.042C53.5894 22.6836 31.3637 19.9863 1 19.9863H0.5V0.5H288.229ZM310.146 40.7842C291.717 40.7842 273.48 42.323 255.437 45.3994L255.428 45.4004C237.88 48.075 220.143 51.8894 202.214 56.8418V657.469C220.151 662.044 238.468 665.861 257.164 668.919C275.98 671.996 294.409 673.534 312.452 673.534C373.894 673.534 425.506 659.111 467.318 630.294C509.152 601.077 540.815 562.443 562.312 514.382C583.813 466.309 594.566 413.422 594.566 355.715C594.566 297.623 583.62 244.738 561.736 197.053L561.735 197.05C540.24 149.375 508.387 111.513 466.172 83.4512L466.169 83.4502C423.972 55.0163 371.973 40.7842 310.146 40.7842Z" fill="#C09E63" stroke="#C09E63"/>
</svg>
