<svg width="82" height="54" viewBox="0 0 82 54" fill="none" xmlns="http://www.w3.org/2000/svg">
<path fill-rule="evenodd" clip-rule="evenodd" d="M48.8258 20.7895C48.8258 19.872 49.7155 18.8802 51.6108 18.631C53.8311 18.418 56.0667 18.8132 58.0909 19.7765L59.2458 14.335C57.2753 13.6182 55.1979 13.2632 53.1082 13.2862C46.6087 13.2862 42.0611 16.7787 42.0225 21.7614C42.0225 25.4475 45.2825 27.4894 47.7083 28.749C50.1327 30.0086 51.1176 30.8108 51.0996 31.9378C51.0996 33.6549 49.0524 34.4186 47.1765 34.4385C44.832 34.4876 42.513 33.9296 40.4324 32.8156L39.2569 38.4467C41.5867 39.3578 44.0599 39.8176 46.552 39.8031C53.43 39.8031 57.921 36.3478 57.921 31.0216C57.921 26.9723 54.612 25.2128 51.9661 23.8047C50.1829 22.8566 48.7009 22.0677 48.7306 20.8452L48.8258 20.7882V20.7895ZM17.1087 31.1343L23.9494 13.6853H30.8841L20.2529 39.3443H13.3182L8.03421 18.8405C7.98765 18.3608 7.82034 17.9019 7.54881 17.5092C7.27466 17.1133 6.9068 16.7961 6.48015 16.5877C4.41394 15.5941 2.23785 14.8634 0 14.4119L0.151929 13.6667H11.311C12.0413 13.6618 12.7497 13.9235 13.3105 14.4053C13.8667 14.8866 14.2337 15.5522 14.3431 16.2828L17.1087 31.1343ZM28.2549 39.3258L33.6754 13.6866H40.229L34.8123 39.3258H28.2549ZM71.319 20.6927L67.8337 30.238H73.2143L71.319 20.6927ZM68.6178 14.1812C69.1207 13.8387 69.7119 13.6595 70.3148 13.6667L75.8473 13.6866L81.1146 39.343H75.0336L74.2366 35.5257H65.8444L64.4797 39.3443H57.6789L67.5118 15.5761C67.7307 15.0086 68.1156 14.522 68.6178 14.1812Z" fill="white"/>
</svg>
