<svg width="180" height="54" viewBox="0 0 180 54" fill="none" xmlns="http://www.w3.org/2000/svg">
<mask id="mask0_2_50686" style="mask-type:luminance" maskUnits="userSpaceOnUse" x="-1" y="0" width="181" height="54">
<path d="M179.345 0.210938H-0.0429688V53.2474H179.345V0.210938Z" fill="white"/>
</mask>
<g mask="url(#mask0_2_50686)">
<path d="M39.0987 16.2969H27.8906V37.1455H39.0987V16.2969Z" fill="#FF5F00"/>
<path d="M28.5983 26.7279C28.5965 24.72 29.0361 22.7381 29.8837 20.932C30.7313 19.126 31.9648 17.5431 33.4907 16.3036C31.6011 14.7662 29.3317 13.81 26.9419 13.5445C24.5521 13.279 22.1384 13.7148 19.9767 14.8021C17.8148 15.8895 15.9922 17.5845 14.717 19.6934C13.4418 21.8022 12.7656 24.2399 12.7656 26.7279C12.7656 29.2158 13.4418 31.6535 14.717 33.7624C15.9922 35.8712 17.8148 37.5663 19.9767 38.6536C22.1384 39.7409 24.5521 40.1767 26.9419 39.9113C29.3317 39.6457 31.6011 38.6896 33.4907 37.1522C31.9648 35.9126 30.7313 34.3297 29.8837 32.5237C29.0361 30.7177 28.5965 28.7357 28.5983 26.7279Z" fill="#EB001B"/>
<path d="M54.2244 26.7318C54.2246 29.2197 53.5484 31.6574 52.2733 33.7663C50.9981 35.8751 49.1756 37.5702 47.0138 38.6576C44.8521 39.7448 42.4384 40.1806 40.0487 39.9152C37.659 39.6497 35.3896 38.6936 33.5 37.1561C35.0245 35.9152 36.2571 34.3322 37.1045 32.5264C37.952 30.7206 38.3924 28.7393 38.3924 26.7318C38.3924 24.7242 37.952 22.7429 37.1045 20.9371C36.2571 19.1314 35.0245 17.5484 33.5 16.3075C35.3896 14.7701 37.659 13.8139 40.0487 13.5484C42.4384 13.2829 44.8521 13.7187 47.0138 14.8061C49.1756 15.8934 50.9981 17.5884 52.2733 19.6973C53.5484 21.8063 54.2246 24.244 54.2244 26.7318Z" fill="#F79E1B"/>
<path d="M52.9992 34.9398V34.5135H53.1653V34.4266H52.7422V34.5135H52.9085V34.9398H52.9992ZM53.8207 34.9398V34.4258H53.691L53.5418 34.7794L53.3925 34.4258H53.2629V34.9398H53.3544V34.5521L53.4943 34.8864H53.5893L53.7292 34.5512V34.9398H53.8207Z" fill="#F79E1B"/>
<path d="M67.2635 40.0594H66.7891V35.5855V26.6371V17.6886V13.2148H67.2635V22.1629V31.1114V40.0594Z" fill="white"/>
<path d="M80.3937 34.9403H79.0625V19.1277H80.3937V34.9403ZM90.1049 19.1277C91.2725 19.1104 92.4347 19.2975 93.5421 19.6811C94.5045 20.0157 95.389 20.5543 96.1391 21.2624C96.8583 21.9571 97.4208 22.8075 97.7865 23.7528C98.5579 25.8674 98.5579 28.2005 97.7865 30.315C97.4208 31.2604 96.8583 32.1108 96.1391 32.8056C95.389 33.5138 94.5045 34.0524 93.5421 34.387C92.4347 34.7706 91.2725 34.9577 90.1049 34.9403H84.529V19.1277H90.1049ZM85.8602 20.4378V33.6302H90.1049C91.1056 33.6486 92.102 33.4901 93.0512 33.1614C93.8502 32.8812 94.5828 32.4289 95.2006 31.8344C95.7875 31.2543 96.239 30.5435 96.5211 29.756C97.1173 27.9938 97.1173 26.0741 96.5211 24.312C96.2381 23.5232 95.7868 22.8109 95.2006 22.2282C94.5846 21.631 93.8515 21.1783 93.0512 20.9009C92.1012 20.5762 91.1052 20.4196 90.1049 20.4378H85.8602ZM113.837 18.9469C114.477 18.9451 115.114 19.0209 115.736 19.1729C116.332 19.3177 116.909 19.5358 117.455 19.8223C117.979 20.0972 118.466 20.4407 118.906 20.8444C119.335 21.2396 119.708 21.6959 120.013 22.1999L118.9 22.9678C118.639 22.5538 118.325 22.1779 117.968 21.8497C117.606 21.5176 117.207 21.2331 116.778 21.0025C116.335 20.7654 115.867 20.5852 115.382 20.466C114.876 20.341 114.357 20.2784 113.837 20.2797C112.97 20.2719 112.108 20.4367 111.3 20.7653C110.537 21.0766 109.843 21.5456 109.26 22.1434C108.672 22.7534 108.208 23.4793 107.896 24.2782C107.234 26.0514 107.234 28.0166 107.896 29.79C108.208 30.5888 108.672 31.3148 109.26 31.9247C109.843 32.5225 110.537 32.9914 111.3 33.3026C112.108 33.6314 112.97 33.7963 113.837 33.7883C114.355 33.7898 114.872 33.7293 115.376 33.6075C115.859 33.4915 116.327 33.3132 116.767 33.0766C117.196 32.8463 117.596 32.5618 117.957 32.2296C118.316 31.8991 118.63 31.519 118.89 31.1001L119.981 31.9247C119.663 32.4187 119.283 32.8669 118.851 33.2574C118.413 33.6527 117.929 33.9903 117.411 34.2627C116.873 34.5455 116.303 34.7598 115.714 34.9008C114.055 35.292 112.32 35.1602 110.733 34.5224C109.807 34.1436 108.963 33.5773 108.251 32.8564C107.542 32.1291 106.984 31.2608 106.609 30.3038C105.816 28.2031 105.816 25.8706 106.609 23.7699C106.983 22.8106 107.542 21.9403 108.251 21.2115C108.963 20.4907 109.807 19.9243 110.733 19.5454C111.721 19.1404 112.775 18.9373 113.837 18.9469ZM124.105 26.1529C124.3 25.8177 124.541 25.5134 124.82 25.2494C125.086 24.998 125.386 24.7869 125.709 24.6225C126.029 24.4609 126.366 24.3395 126.713 24.2612C127.057 24.1827 127.408 24.1428 127.761 24.1425C128.359 24.1354 128.954 24.2367 129.517 24.4418C130.025 24.6267 130.491 24.917 130.887 25.2945C131.274 25.6716 131.575 26.1324 131.771 26.6442C131.984 27.2108 132.09 27.815 132.081 28.4232V34.9403H130.838V28.8186C130.845 28.3274 130.771 27.8385 130.619 27.3727C130.486 26.9643 130.266 26.5919 129.976 26.2829C129.683 25.9793 129.329 25.7461 128.94 25.5996C128.491 25.4344 128.018 25.354 127.543 25.3624C127.082 25.3586 126.625 25.4448 126.195 25.6164C125.788 25.7786 125.416 26.0244 125.104 26.3394C124.79 26.6578 124.542 27.0379 124.373 27.4574C124.191 27.91 124.1 28.396 124.105 28.8862V34.9403H122.861V18.6758H124.105V26.1529ZM139.48 24.1425C140.135 24.1364 140.783 24.2731 141.384 24.5435C141.959 24.8031 142.476 25.1839 142.901 25.6616C143.339 26.1623 143.681 26.745 143.909 27.3785C144.163 28.0773 144.293 28.8177 144.291 29.564C144.291 29.6619 144.29 29.7543 144.286 29.8406C144.282 29.9273 144.277 30.0121 144.271 30.0949H135.661C135.692 30.6656 135.828 31.2249 136.059 31.7438C136.268 32.2074 136.562 32.6238 136.926 32.9692C137.284 33.3047 137.7 33.5638 138.154 33.7318C138.628 33.9072 139.129 33.9951 139.632 33.9915C140.297 34.0035 140.956 33.8646 141.565 33.5849C142.135 33.3113 142.656 32.9368 143.102 32.478L143.769 33.3591C143.465 33.6771 143.13 33.9612 142.77 34.2062C142.445 34.4255 142.096 34.6073 141.732 34.7482C141.385 34.8824 141.025 34.9771 140.659 35.0306C140.294 35.0834 139.924 35.1098 139.557 35.1098C138.847 35.1175 138.142 34.9812 137.484 34.7087C136.869 34.4543 136.311 34.0717 135.846 33.5849C135.38 33.0902 135.016 32.5021 134.777 31.8568C134.515 31.1466 134.385 30.3917 134.396 29.6317C134.388 28.8768 134.519 28.1274 134.782 27.4236C135.025 26.7764 135.387 26.1852 135.851 25.6843C136.31 25.1961 136.86 24.8097 137.467 24.5492C138.105 24.2748 138.789 24.1365 139.48 24.1425ZM139.458 25.2832C138.967 25.277 138.479 25.371 138.023 25.5599C137.599 25.7386 137.212 25.9993 136.883 26.328C136.549 26.6643 136.278 27.0603 136.08 27.4971C135.869 27.9674 135.735 28.4715 135.683 28.9881H143.027C142.989 28.4679 142.868 27.958 142.667 27.4801C142.482 27.044 142.222 26.6476 141.896 26.3112C141.576 25.9816 141.196 25.7209 140.777 25.5445C140.358 25.3681 139.91 25.2792 139.458 25.2832ZM151.449 24.1425C152.177 24.1352 152.899 24.2792 153.572 24.566C154.209 24.8384 154.778 25.2576 155.235 25.7916L154.428 26.6613C154.041 26.256 153.584 25.9287 153.081 25.6956C152.556 25.4602 151.988 25.3429 151.417 25.351C150.879 25.3464 150.346 25.456 149.851 25.6729C149.377 25.8801 148.949 26.1836 148.59 26.5652C148.229 26.9552 147.944 27.4159 147.756 27.9206C147.356 29.0237 147.356 30.2396 147.756 31.3429C147.941 31.8429 148.221 32.299 148.583 32.6834C148.943 33.0678 149.374 33.3726 149.851 33.5793C150.346 33.7963 150.879 33.9059 151.417 33.9012C151.997 33.908 152.573 33.7847 153.103 33.5398C153.607 33.3052 154.067 32.9802 154.461 32.5798L155.235 33.4608C154.774 33.9926 154.204 34.4112 153.566 34.6862C152.206 35.249 150.689 35.251 149.327 34.6917C148.703 34.4293 148.138 34.0382 147.665 33.542C147.192 33.0459 146.822 32.4552 146.577 31.8062C146.061 30.4039 146.061 28.854 146.577 27.4519C146.821 26.8012 147.191 26.2092 147.664 25.7119C148.137 25.2146 148.703 24.8228 149.327 24.5604C150.001 24.2759 150.722 24.1338 151.449 24.1425ZM158.978 28.7959H160.648L164.968 24.3118H166.539L161.651 29.3268L166.628 34.9403H165.045L160.648 29.9594H158.978V34.9403H157.734V18.6758H158.978V28.7959Z" fill="white"/>
</g>
</svg>
