<svg width="61" height="61" viewBox="0 0 61 61" fill="none" xmlns="http://www.w3.org/2000/svg">
<g clip-path="url(#clip0_14_53823)">
<path d="M53.0968 26.4193C51.8722 23.6607 50.8257 20.5037 48.2946 18.5883C45.9758 16.8038 42.7658 17.4087 41.6602 19.6467C39.1721 18.0844 35.409 19.4604 34.9711 22.2863C32.6933 21.2574 29.6653 22.272 28.8696 24.5686C26.5456 20.1407 25.6165 14.6423 21.4275 11.4336C19.7368 10.8344 17.3244 11.4564 16.3566 13.0871C14.6883 16.5045 17.0124 20.6377 18.3522 23.8013C18.8104 24.6634 19.256 26.342 20.3265 26.4336C24.3439 33.7463 32.549 44.842 17.0673 41.1168C16.5786 41.0675 16.0723 41.1489 15.5929 41.3124C12.347 42.4371 12.2298 47.7768 15.5481 48.874C24.0197 53.0181 34.5878 54.9501 43.0981 49.867C48.091 47.5822 54.8168 45.3625 55.9436 39.2239C56.0217 38.4657 56.4161 35.9242 55.2492 35.95C53.3601 35.9762 56.1767 39.9039 50.2884 43.61C47.6925 45.2573 44.7469 46.2275 41.9326 47.4702C34.0311 52.0287 24.3479 50.5864 16.3414 47.0266C15.8684 46.8763 15.486 46.6265 15.255 46.1748C14.6061 44.9618 15.2616 42.9407 16.8098 42.9204C33.8229 46.4184 27.1906 34.4553 21.6463 25.7006C21.8522 25.3104 21.8638 24.8277 21.6336 24.4132C20.9669 23.2277 20.3142 22.0781 19.7175 20.8736C18.5069 18.4284 16.0072 13.0055 20.5022 13.1445C25.2093 16.9553 25.7238 23.7261 29.1588 28.5347C29.9441 29.6769 31.6143 28.3669 30.7134 27.332C30.4408 27.0271 30.1882 26.7003 29.9494 26.3597C29.6194 24.2565 32.0415 22.791 33.9278 23.5649C35.1303 23.8181 35.3656 25.526 36.4274 25.1442C37.9916 24.4519 35.0482 22.316 38.2296 21.0225C39.4831 20.6058 40.8752 21.1153 41.3997 22.3569C41.8406 23.4069 43.5352 22.9351 43.3471 21.7923C43.1934 20.9518 43.7603 20.0755 44.5585 19.8082C48.755 19.4414 49.8207 26.2363 51.3918 29.1506C52.2176 30.7165 54.5957 29.4678 53.7876 27.9015C53.5483 27.4423 53.3213 26.9372 53.0968 26.4193Z" fill="white"/>
</g>
<defs>
<clipPath id="clip0_14_53823">
<rect width="46" height="46" fill="white" transform="translate(0 19.1267) rotate(-24.5696)"/>
</clipPath>
</defs>
</svg>
