<svg width="75" height="85" viewBox="0 0 75 85" fill="none" xmlns="http://www.w3.org/2000/svg">
<g opacity="0.4">
<path d="M74.7744 65.6467C74.7744 69.547 73.7625 72.9322 71.7388 75.8022C69.715 78.6355 67.0841 80.8248 63.8461 82.3702C60.6449 83.8788 57.2046 84.6331 53.525 84.6331C51.1333 84.6331 48.7416 84.302 46.3499 83.6396C43.995 82.9773 41.8425 82.315 39.8923 81.6527C37.9789 80.9904 36.4519 80.6592 35.3113 80.6592C34.2074 80.6592 33.4347 81.1008 32.9932 81.9838C32.5884 82.8669 32.3308 83.75 32.2205 84.6331H30.3991V61.2312H32.2205C32.9196 67.0081 34.9433 71.6995 38.2917 75.3055C41.6769 78.8746 46.3867 80.6592 52.4212 80.6592C54.5921 80.6592 56.7078 80.2545 58.7684 79.445C60.8289 78.5987 62.5215 77.3476 63.8461 75.6918C65.1708 74.036 65.8331 71.9755 65.8331 69.5102C65.8331 66.8977 64.9684 64.6164 63.239 62.6662C61.5096 60.7161 59.2835 58.9315 56.5606 57.3125C53.8378 55.6567 50.9309 54.0193 47.8401 52.4003C44.7861 50.7813 41.8977 49.0151 39.1748 47.1018C36.4519 45.1884 34.2258 42.9807 32.4964 40.4786C30.767 37.9765 29.9023 35.0145 29.9023 31.5925C29.9023 27.8762 30.8222 24.6934 32.662 22.0441C34.5018 19.3948 36.9119 17.3711 39.8923 15.9728C42.8727 14.5378 46.0923 13.8203 49.5511 13.8203C51.5749 13.8203 53.5986 14.1331 55.6224 14.7586C57.6461 15.3841 59.4859 16.028 61.1417 16.6904C62.8343 17.3159 64.1773 17.6286 65.1708 17.6286C66.201 17.6286 66.9553 17.1871 67.4337 16.304C67.912 15.3841 68.2432 14.5562 68.4272 13.8203H70.3589V37.167H68.4272C68.1328 33.6347 67.2129 30.3967 65.6675 27.453C64.1589 24.5094 62.0616 22.1545 59.3755 20.3883C56.7262 18.6221 53.4882 17.739 49.6615 17.739C47.6745 17.739 45.7612 18.1622 43.9214 19.0085C42.1184 19.8548 40.6282 21.0506 39.4508 22.596C38.3101 24.1414 37.7398 25.9628 37.7398 28.0601C37.7398 30.5254 38.6229 32.6964 40.389 34.5729C42.192 36.4495 44.4917 38.1789 47.2882 39.7611C50.1214 41.3433 53.1019 42.9439 56.2295 44.5629C59.3939 46.1451 62.3743 47.9113 65.1708 49.8614C68.004 51.7748 70.3037 54.0009 72.0699 56.5398C73.8729 59.0787 74.7744 62.1143 74.7744 65.6467Z" fill="#C09E63"/>
<path d="M59.7965 29.4137C59.7965 36.1008 58.3428 41.6734 55.4353 46.1315C52.5602 50.5573 48.619 53.8847 43.6117 56.1137C38.6044 58.3105 32.9188 59.4088 26.5547 59.4088H0V57.7128C2.48748 57.7128 4.32887 57.4867 5.52415 57.0344C6.71943 56.5822 7.49476 55.7261 7.85011 54.4662C8.23777 53.2063 8.4316 51.3649 8.4316 48.942V10.4668C8.4316 7.94702 8.25392 6.05718 7.89857 4.79729C7.57552 3.50509 6.81635 2.64901 5.62107 2.22904C4.42578 1.77677 2.55209 1.55064 0 1.55064V0H24.1318C29.1391 0 33.791 0.484574 38.0876 1.45372C42.4164 2.39057 46.1961 3.97351 49.4266 6.20255C52.6894 8.39929 55.2254 11.4037 57.0344 15.2156C58.8758 18.9953 59.7965 23.728 59.7965 29.4137ZM49.9112 29.7529C49.9112 24.8748 48.9905 20.4329 47.1491 16.4271C45.34 12.4213 42.6587 9.23922 39.1052 6.88096C35.5516 4.49039 31.1743 3.29511 25.9732 3.29511C24.4226 3.29511 22.8881 3.42433 21.3697 3.68277C19.8837 3.9089 18.3815 4.23195 16.8632 4.65192V55.0961C18.3815 55.4838 19.9322 55.8068 21.5151 56.0653C23.0981 56.3237 24.6487 56.4529 26.167 56.4529C31.3358 56.4529 35.6808 55.2415 39.2021 52.8186C42.7233 50.3634 45.3885 47.1168 47.1976 43.0787C49.0066 39.0406 49.9112 34.5986 49.9112 29.7529Z" fill="#C09E63"/>
</g>
</svg>
