<svg width="74" height="54" viewBox="0 0 74 54" fill="none" xmlns="http://www.w3.org/2000/svg">
<mask id="mask0_2_50673" style="mask-type:luminance" maskUnits="userSpaceOnUse" x="-1" y="0" width="75" height="54">
<path d="M-0.046875 0.210938H73.2682V53.2474H-0.046875V0.210938Z" fill="white"/>
</mask>
<g mask="url(#mask0_2_50673)">
<path d="M44.1618 12.832H29.0078V40.6271H44.1618V12.832Z" fill="#FF5F00"/>
<path d="M29.9622 26.7299C29.9622 21.3281 32.4156 16.1716 36.5527 12.8317C29.0484 6.79213 18.1296 8.11804 12.2121 15.8282C6.34293 23.488 7.64296 34.5872 15.1957 40.6267C18.2362 43.0826 22.01 44.42 25.8991 44.42C29.7881 44.42 33.5619 43.0826 36.6024 40.6267C34.5336 38.9666 32.862 36.8544 31.7126 34.4479C30.5632 32.0415 29.9657 29.4031 29.9648 26.7299H29.9622Z" fill="#EB001B"/>
<path d="M64.6118 26.7299C64.6118 36.5018 56.8666 44.4082 47.2924 44.4082C43.3962 44.4082 39.6441 43.0823 36.6133 40.6267C44.1176 34.5872 45.4163 23.488 39.5001 15.7792C38.6334 14.6985 37.6711 13.667 36.6133 12.8317C44.1176 6.79213 55.0389 8.11804 60.9068 15.8282C63.3163 18.9372 64.6215 22.7776 64.6118 26.7299Z" fill="#F79E1B"/>
</g>
</svg>
