<svg width="122" height="125" viewBox="0 0 122 125" fill="none" xmlns="http://www.w3.org/2000/svg">
<mask id="path-1-inside-1_2_50564" fill="white">
<path d="M3.52168 0.308288C2.30347 1.88947 0.570897 7.07687 0.164825 10.4334C-0.701461 17.4517 1.81618 22.8332 8.44869 28.1039C13.4569 32.0984 20.4143 35.8711 27.9672 38.7006C30.3224 39.5883 30.3766 39.616 29.2396 39.6437C26.0181 39.6715 16.895 37.0084 11.7514 34.5396C8.55697 33.0139 4.52333 30.3231 2.19518 28.1593C1.30183 27.2994 0.408468 26.6059 0.246039 26.6059C0.0565392 26.6059 0.00239634 27.5213 0.110682 29.5741C0.516754 36.5646 3.16975 40.892 8.9089 43.9435C12.9696 46.1072 18.5734 47.4664 29.8893 49.1308C33.3815 49.6302 36.224 50.1295 36.224 50.2405C36.224 50.4624 34.2478 50.6843 29.9976 50.8785C22.3093 51.2668 10.9934 49.8244 5.6874 47.7716C5.06476 47.5219 4.46918 47.411 4.38797 47.4942C4.11726 47.7716 6.87854 51.6552 8.50283 53.2919C10.6956 55.4833 11.9138 56.3433 14.2961 57.3142C17.653 58.7289 19.3585 58.9231 27.4258 58.9231C31.4594 58.9231 36.3323 58.8121 38.2543 58.7012C42.5316 58.4515 42.3151 58.6734 37.1715 59.9772C30.0788 61.7803 23.2568 62.6125 18.059 62.2797C16.4889 62.1964 15.1353 62.1964 15.0541 62.2797C14.7563 62.5571 18.6005 65.9691 20.5496 67.1342C25.6391 70.2411 29.5103 70.1301 44.9951 66.4129C45.9968 66.1633 46.9713 66.0246 47.1338 66.08C47.4857 66.191 41.2863 69.3256 38.8228 70.2688C36.5218 71.1565 33.5439 71.9609 31.0804 72.377C28.2921 72.8486 28.1296 72.9041 28.6981 73.237C29.6727 73.7918 33.4627 74.3466 36.224 74.3466C40.3118 74.3466 43.8311 73.4867 47.5398 71.5726C49.868 70.3798 49.7597 71.0178 47.1879 73.3757C44.5078 75.8446 42.5587 77.3425 41.2322 77.9528C40.6096 78.2302 40.0411 78.5354 39.9328 78.6463C39.8245 78.7573 40.393 79.1456 41.2051 79.4785C43.046 80.2275 44.8598 81.5035 46.6194 83.2512C47.3503 83.9724 48.0001 84.5827 48.0542 84.5827C48.1083 84.5827 48.2437 84.3053 48.3791 83.9447C48.7851 82.8628 52.7376 77.7864 52.7376 78.3689C52.7376 78.6463 51.9254 80.5881 50.9238 82.6409C49.2453 86.1084 48.8934 86.58 46.5111 89.0766C43.7228 91.9893 42.1526 92.9602 38.5251 94.0143C35.7096 94.8465 35.7367 94.8743 39.1477 95.651C42.3151 96.4 44.4537 96.4 46.5382 95.6787C47.4586 95.3458 48.2437 95.1517 48.2978 95.2071C48.352 95.2626 47.3503 96.3722 46.0509 97.6483C43.6145 100.062 41.2863 101.643 39.7433 101.948C39.2289 102.059 38.7958 102.364 38.6604 102.725C38.119 104.028 36.6842 109.577 36.8196 109.715C37.2527 110.131 41.9631 106.886 44.0747 104.694C44.8868 103.862 45.6448 103.169 45.7531 103.169C46.4028 103.169 42.288 109.937 40.6366 111.629L39.3372 112.933L40.4201 113.904C41.7466 115.097 46.3758 118.703 46.5653 118.703C46.7277 118.703 50.626 111.38 52.1961 108.162C52.6834 107.163 53.1436 106.525 53.1978 106.692C53.3602 107.163 52.5751 111.768 51.6006 116.068C51.1403 118.065 50.7613 119.924 50.7343 120.201C50.7072 120.756 51.5464 121.338 55.6342 123.585C57.9082 124.834 58.6933 125.055 58.6933 124.445C58.6933 124.279 58.9369 122.42 59.2347 120.367C59.5325 118.315 59.9656 114.376 60.2093 111.629C60.4529 108.883 60.6966 106.442 60.7778 106.22C61.0485 105.277 61.3463 106.747 61.7794 111.213C62.0501 113.738 62.4291 117.15 62.6457 118.786C62.8352 120.423 63.0247 122.198 63.0247 122.725C63.0247 123.225 63.133 123.974 63.2684 124.334L63.512 125L67.2749 123.141C69.3324 122.115 71.1732 121.089 71.3627 120.867C71.6064 120.534 71.6064 120.173 71.3086 119.091C70.5776 116.401 69.0075 108.55 68.6014 105.554C68.4661 104.583 68.4931 104.528 68.818 104.999C69.0075 105.277 69.2782 105.859 69.4136 106.275C69.9009 107.801 75.3422 118.953 75.6129 118.953C75.9378 118.98 79.9444 115.901 81.7852 114.209L83.1117 113.016L81.1084 110.908C79.2676 108.966 77.0206 105.443 76.6146 103.945C76.5063 103.474 76.9665 103.779 78.6179 105.249C82.2184 108.467 85.494 110.381 85.494 109.244C85.494 109.105 85.1962 108.245 84.8443 107.385C84.4924 106.497 84.0592 105.083 83.8697 104.25C83.4366 102.392 83.2741 102.17 82.1371 101.948C80.8648 101.698 78.4013 99.9784 76.019 97.7038C74.0699 95.8174 73.6638 94.9852 75.0444 95.6232C75.3964 95.7897 76.6416 96.0671 77.8328 96.2613C79.5924 96.5109 80.2963 96.5109 82.1101 96.1503C84.6277 95.651 85.7647 95.2626 85.7647 94.8465C85.7647 94.7078 85.5211 94.5691 85.2233 94.5691C84.2758 94.5691 80.2421 92.766 78.5366 91.5732C75.4505 89.4095 72.5539 85.7478 70.5776 81.4203C68.7909 77.4812 68.9534 77.2038 71.2274 80.283C72.3644 81.8087 73.5284 83.3621 73.8262 83.7505L74.3406 84.4162L75.8024 83.0292C77.5079 81.3926 79.9173 79.7004 80.9731 79.4508C81.3792 79.3398 81.704 79.1734 81.704 79.0624C81.704 78.9515 80.7565 78.1747 79.6195 77.3703C77.4538 75.8168 73.0411 71.6835 73.0411 71.212C73.0411 71.0455 73.5555 71.2397 74.2052 71.6281C76.8582 73.1815 82.0559 74.5963 85.2233 74.5963C87.5244 74.5685 90.421 74.1802 92.2619 73.5976C94.0757 73.0428 93.9132 72.9596 89.6359 72.1274C85.7106 71.3784 83.9239 70.7681 79.9444 68.7708C74.6925 66.1355 74.5571 65.8304 79.1322 66.94C81.8123 67.578 84.2217 68.1051 88.3094 68.9095C91.4497 69.5198 95.8353 69.4643 98.0822 68.7431C99.8419 68.1883 101.602 67.3283 103.226 66.191C104.661 65.1924 107.422 62.6403 107.422 62.3074C107.422 62.0577 106.637 62.0023 104.525 62.1132C96.7557 62.4738 86.0896 61.0313 81.8394 59.0063L80.7565 58.507L81.9747 58.6457C85.2504 58.9786 98.5154 59.1173 100.925 58.8121C106.962 58.0632 110.698 56.5097 113.648 53.5415C115.354 51.8216 117.953 47.8548 117.628 47.5219C117.547 47.4387 116.41 47.6884 115.083 48.0767C108.234 50.1295 103.307 50.7953 94.8337 50.8507C88.7967 50.8785 85.494 50.6566 85.494 50.2127C85.494 50.074 86.1437 49.9076 86.9288 49.8244C93.7508 49.0754 103.578 47.411 106.204 46.5788C106.664 46.4401 107.855 46.0517 108.857 45.7188C111.401 44.9144 114.569 43.2777 116.491 41.7797C118.927 39.8934 120.552 37.369 121.31 34.2067C121.743 32.4591 122.203 26.6059 121.905 26.6059C121.797 26.6059 120.849 27.4381 119.794 28.4367C114.081 33.7906 104.715 37.9793 95.3751 39.3663C91.7204 39.8934 91.6663 39.6992 95.1044 38.2845C110.725 31.821 119.55 24.7473 121.499 17.1743C122.203 14.428 121.77 8.85224 120.524 4.96862C120.037 3.47066 118.575 0.336028 118.278 0.114107C118.142 0.0586267 117.98 0.502468 117.871 1.11275C117.438 3.88676 115.543 8.21421 113.432 11.2101C112.078 13.1242 109.019 16.3698 106.718 18.3116C103.118 21.3075 96.7287 24.9137 88.4719 28.5477C86.3061 29.4909 84.4382 30.3785 84.3029 30.5172C84.1675 30.6559 84.1675 30.8779 84.3299 31.0998C85.1962 32.1817 85.494 38.0348 84.8172 40.9198C83.6802 45.913 80.3234 49.7689 76.9394 49.9908L75.9107 50.0463L75.4505 46.9949C74.7196 42.279 73.745 39.5328 71.5251 36.1207C68.1141 30.8501 62.9706 27.7155 57.7458 27.7155C54.4701 27.7155 51.8171 28.409 50.4365 29.6573C50.1387 29.9347 49.3807 30.2121 48.731 30.2953C46.4299 30.5727 44.8868 32.5423 44.8868 35.1776C44.8868 36.7865 45.3471 38.0903 46.2133 39.0057C46.9713 39.8379 47.2691 39.8102 47.1067 38.9502C46.7818 37.1749 49.4619 36.4814 51.4381 37.8406C52.9271 38.867 53.6309 40.6146 53.4956 42.9726C53.4144 44.6647 53.279 45.0808 52.3315 46.4678C51.5735 47.5774 50.7884 48.3264 49.7597 48.9089C48.4332 49.6857 48.0271 49.7689 45.9697 49.7689C43.9664 49.7689 43.5062 49.6856 42.4233 49.0199C39.9328 47.5219 38.2002 45.0531 37.1986 41.6133C36.4135 38.9225 36.6842 33.43 37.7129 30.9888C37.8483 30.6282 37.7129 30.434 37.1173 30.1844C30.16 27.2439 22.8507 23.3326 17.8425 19.8651C15.6226 18.3393 11.6973 14.7886 10.2083 12.9578C7.04097 9.07416 4.65868 4.35834 4.3609 1.47337C4.19847 -0.0523337 4.00897 -0.301995 3.52168 0.308288ZM62.5645 32.2094C65.5965 33.8738 68.439 37.3413 70.2528 41.6133C71.7146 45.0808 72.229 47.6329 72.4185 52.1268C72.5809 56.3433 72.3373 61.0036 71.9583 61.0036C71.8229 61.0036 71.4981 60.5875 71.2003 60.0882C70.9296 59.6166 69.7926 57.6748 68.7097 55.7885C67.6269 53.9299 66.6252 52.321 66.5169 52.2377C66.3816 52.1545 66.2733 52.8203 66.2733 53.6802C66.2733 56.0936 65.786 58.5902 64.649 62.1132C63.6203 65.3033 62.375 67.9386 61.9148 67.9386C61.617 67.9386 61.617 64.6376 61.9148 61.281C62.0231 59.9772 62.1043 58.8954 62.0501 58.8399C61.9689 58.7012 61.5087 59.256 57.7458 63.8886C54.2536 68.1883 54.2265 68.2438 54.1453 67.2729C53.9829 65.442 56.0674 60.1437 58.206 56.8981C58.6391 56.2601 58.8828 55.733 58.7474 55.733C58.585 55.733 57.5292 56.2046 56.3651 56.8149C53.9828 57.9799 49.5161 59.7553 48.2708 60.005L47.4586 60.1714L48.5144 59.256C55.174 53.6525 56.8254 51.8494 58.6121 48.2709C59.2347 47.0781 59.8844 45.3582 60.0469 44.4705C60.7236 41.2249 59.8574 37.5078 57.8811 34.9279C57.448 34.3454 57.069 33.7906 57.069 33.7074C57.069 33.5964 57.3939 33.208 57.827 32.8474C58.7474 32.043 58.4226 31.5991 57.3668 32.2371C56.9336 32.4868 56.2839 32.7087 55.932 32.7087C55.2823 32.7087 54.0911 32.0152 54.0911 31.6269C54.0911 31.5159 55.6342 31.3772 57.5021 31.3494C60.859 31.3217 60.9131 31.3217 62.5645 32.2094Z"/>
</mask>
<path d="M3.52168 0.308288C2.30347 1.88947 0.570897 7.07687 0.164825 10.4334C-0.701461 17.4517 1.81618 22.8332 8.44869 28.1039C13.4569 32.0984 20.4143 35.8711 27.9672 38.7006C30.3224 39.5883 30.3766 39.616 29.2396 39.6437C26.0181 39.6715 16.895 37.0084 11.7514 34.5396C8.55697 33.0139 4.52333 30.3231 2.19518 28.1593C1.30183 27.2994 0.408468 26.6059 0.246039 26.6059C0.0565392 26.6059 0.00239634 27.5213 0.110682 29.5741C0.516754 36.5646 3.16975 40.892 8.9089 43.9435C12.9696 46.1072 18.5734 47.4664 29.8893 49.1308C33.3815 49.6302 36.224 50.1295 36.224 50.2405C36.224 50.4624 34.2478 50.6843 29.9976 50.8785C22.3093 51.2668 10.9934 49.8244 5.6874 47.7716C5.06476 47.5219 4.46918 47.411 4.38797 47.4942C4.11726 47.7716 6.87854 51.6552 8.50283 53.2919C10.6956 55.4833 11.9138 56.3433 14.2961 57.3142C17.653 58.7289 19.3585 58.9231 27.4258 58.9231C31.4594 58.9231 36.3323 58.8121 38.2543 58.7012C42.5316 58.4515 42.3151 58.6734 37.1715 59.9772C30.0788 61.7803 23.2568 62.6125 18.059 62.2797C16.4889 62.1964 15.1353 62.1964 15.0541 62.2797C14.7563 62.5571 18.6005 65.9691 20.5496 67.1342C25.6391 70.2411 29.5103 70.1301 44.9951 66.4129C45.9968 66.1633 46.9713 66.0246 47.1338 66.08C47.4857 66.191 41.2863 69.3256 38.8228 70.2688C36.5218 71.1565 33.5439 71.9609 31.0804 72.377C28.2921 72.8486 28.1296 72.9041 28.6981 73.237C29.6727 73.7918 33.4627 74.3466 36.224 74.3466C40.3118 74.3466 43.8311 73.4867 47.5398 71.5726C49.868 70.3798 49.7597 71.0178 47.1879 73.3757C44.5078 75.8446 42.5587 77.3425 41.2322 77.9528C40.6096 78.2302 40.0411 78.5354 39.9328 78.6463C39.8245 78.7573 40.393 79.1456 41.2051 79.4785C43.046 80.2275 44.8598 81.5035 46.6194 83.2512C47.3503 83.9724 48.0001 84.5827 48.0542 84.5827C48.1083 84.5827 48.2437 84.3053 48.3791 83.9447C48.7851 82.8628 52.7376 77.7864 52.7376 78.3689C52.7376 78.6463 51.9254 80.5881 50.9238 82.6409C49.2453 86.1084 48.8934 86.58 46.5111 89.0766C43.7228 91.9893 42.1526 92.9602 38.5251 94.0143C35.7096 94.8465 35.7367 94.8743 39.1477 95.651C42.3151 96.4 44.4537 96.4 46.5382 95.6787C47.4586 95.3458 48.2437 95.1517 48.2978 95.2071C48.352 95.2626 47.3503 96.3722 46.0509 97.6483C43.6145 100.062 41.2863 101.643 39.7433 101.948C39.2289 102.059 38.7958 102.364 38.6604 102.725C38.119 104.028 36.6842 109.577 36.8196 109.715C37.2527 110.131 41.9631 106.886 44.0747 104.694C44.8868 103.862 45.6448 103.169 45.7531 103.169C46.4028 103.169 42.288 109.937 40.6366 111.629L39.3372 112.933L40.4201 113.904C41.7466 115.097 46.3758 118.703 46.5653 118.703C46.7277 118.703 50.626 111.38 52.1961 108.162C52.6834 107.163 53.1436 106.525 53.1978 106.692C53.3602 107.163 52.5751 111.768 51.6006 116.068C51.1403 118.065 50.7613 119.924 50.7343 120.201C50.7072 120.756 51.5464 121.338 55.6342 123.585C57.9082 124.834 58.6933 125.055 58.6933 124.445C58.6933 124.279 58.9369 122.42 59.2347 120.367C59.5325 118.315 59.9656 114.376 60.2093 111.629C60.4529 108.883 60.6966 106.442 60.7778 106.22C61.0485 105.277 61.3463 106.747 61.7794 111.213C62.0501 113.738 62.4291 117.15 62.6457 118.786C62.8352 120.423 63.0247 122.198 63.0247 122.725C63.0247 123.225 63.133 123.974 63.2684 124.334L63.512 125L67.2749 123.141C69.3324 122.115 71.1732 121.089 71.3627 120.867C71.6064 120.534 71.6064 120.173 71.3086 119.091C70.5776 116.401 69.0075 108.55 68.6014 105.554C68.4661 104.583 68.4931 104.528 68.818 104.999C69.0075 105.277 69.2782 105.859 69.4136 106.275C69.9009 107.801 75.3422 118.953 75.6129 118.953C75.9378 118.98 79.9444 115.901 81.7852 114.209L83.1117 113.016L81.1084 110.908C79.2676 108.966 77.0206 105.443 76.6146 103.945C76.5063 103.474 76.9665 103.779 78.6179 105.249C82.2184 108.467 85.494 110.381 85.494 109.244C85.494 109.105 85.1962 108.245 84.8443 107.385C84.4924 106.497 84.0592 105.083 83.8697 104.25C83.4366 102.392 83.2741 102.17 82.1371 101.948C80.8648 101.698 78.4013 99.9784 76.019 97.7038C74.0699 95.8174 73.6638 94.9852 75.0444 95.6232C75.3964 95.7897 76.6416 96.0671 77.8328 96.2613C79.5924 96.5109 80.2963 96.5109 82.1101 96.1503C84.6277 95.651 85.7647 95.2626 85.7647 94.8465C85.7647 94.7078 85.5211 94.5691 85.2233 94.5691C84.2758 94.5691 80.2421 92.766 78.5366 91.5732C75.4505 89.4095 72.5539 85.7478 70.5776 81.4203C68.7909 77.4812 68.9534 77.2038 71.2274 80.283C72.3644 81.8087 73.5284 83.3621 73.8262 83.7505L74.3406 84.4162L75.8024 83.0292C77.5079 81.3926 79.9173 79.7004 80.9731 79.4508C81.3792 79.3398 81.704 79.1734 81.704 79.0624C81.704 78.9515 80.7565 78.1747 79.6195 77.3703C77.4538 75.8168 73.0411 71.6835 73.0411 71.212C73.0411 71.0455 73.5555 71.2397 74.2052 71.6281C76.8582 73.1815 82.0559 74.5963 85.2233 74.5963C87.5244 74.5685 90.421 74.1802 92.2619 73.5976C94.0757 73.0428 93.9132 72.9596 89.6359 72.1274C85.7106 71.3784 83.9239 70.7681 79.9444 68.7708C74.6925 66.1355 74.5571 65.8304 79.1322 66.94C81.8123 67.578 84.2217 68.1051 88.3094 68.9095C91.4497 69.5198 95.8353 69.4643 98.0822 68.7431C99.8419 68.1883 101.602 67.3283 103.226 66.191C104.661 65.1924 107.422 62.6403 107.422 62.3074C107.422 62.0577 106.637 62.0023 104.525 62.1132C96.7557 62.4738 86.0896 61.0313 81.8394 59.0063L80.7565 58.507L81.9747 58.6457C85.2504 58.9786 98.5154 59.1173 100.925 58.8121C106.962 58.0632 110.698 56.5097 113.648 53.5415C115.354 51.8216 117.953 47.8548 117.628 47.5219C117.547 47.4387 116.41 47.6884 115.083 48.0767C108.234 50.1295 103.307 50.7953 94.8337 50.8507C88.7967 50.8785 85.494 50.6566 85.494 50.2127C85.494 50.074 86.1437 49.9076 86.9288 49.8244C93.7508 49.0754 103.578 47.411 106.204 46.5788C106.664 46.4401 107.855 46.0517 108.857 45.7188C111.401 44.9144 114.569 43.2777 116.491 41.7797C118.927 39.8934 120.552 37.369 121.31 34.2067C121.743 32.4591 122.203 26.6059 121.905 26.6059C121.797 26.6059 120.849 27.4381 119.794 28.4367C114.081 33.7906 104.715 37.9793 95.3751 39.3663C91.7204 39.8934 91.6663 39.6992 95.1044 38.2845C110.725 31.821 119.55 24.7473 121.499 17.1743C122.203 14.428 121.77 8.85224 120.524 4.96862C120.037 3.47066 118.575 0.336028 118.278 0.114107C118.142 0.0586267 117.98 0.502468 117.871 1.11275C117.438 3.88676 115.543 8.21421 113.432 11.2101C112.078 13.1242 109.019 16.3698 106.718 18.3116C103.118 21.3075 96.7287 24.9137 88.4719 28.5477C86.3061 29.4909 84.4382 30.3785 84.3029 30.5172C84.1675 30.6559 84.1675 30.8779 84.3299 31.0998C85.1962 32.1817 85.494 38.0348 84.8172 40.9198C83.6802 45.913 80.3234 49.7689 76.9394 49.9908L75.9107 50.0463L75.4505 46.9949C74.7196 42.279 73.745 39.5328 71.5251 36.1207C68.1141 30.8501 62.9706 27.7155 57.7458 27.7155C54.4701 27.7155 51.8171 28.409 50.4365 29.6573C50.1387 29.9347 49.3807 30.2121 48.731 30.2953C46.4299 30.5727 44.8868 32.5423 44.8868 35.1776C44.8868 36.7865 45.3471 38.0903 46.2133 39.0057C46.9713 39.8379 47.2691 39.8102 47.1067 38.9502C46.7818 37.1749 49.4619 36.4814 51.4381 37.8406C52.9271 38.867 53.6309 40.6146 53.4956 42.9726C53.4144 44.6647 53.279 45.0808 52.3315 46.4678C51.5735 47.5774 50.7884 48.3264 49.7597 48.9089C48.4332 49.6857 48.0271 49.7689 45.9697 49.7689C43.9664 49.7689 43.5062 49.6856 42.4233 49.0199C39.9328 47.5219 38.2002 45.0531 37.1986 41.6133C36.4135 38.9225 36.6842 33.43 37.7129 30.9888C37.8483 30.6282 37.7129 30.434 37.1173 30.1844C30.16 27.2439 22.8507 23.3326 17.8425 19.8651C15.6226 18.3393 11.6973 14.7886 10.2083 12.9578C7.04097 9.07416 4.65868 4.35834 4.3609 1.47337C4.19847 -0.0523337 4.00897 -0.301995 3.52168 0.308288ZM62.5645 32.2094C65.5965 33.8738 68.439 37.3413 70.2528 41.6133C71.7146 45.0808 72.229 47.6329 72.4185 52.1268C72.5809 56.3433 72.3373 61.0036 71.9583 61.0036C71.8229 61.0036 71.4981 60.5875 71.2003 60.0882C70.9296 59.6166 69.7926 57.6748 68.7097 55.7885C67.6269 53.9299 66.6252 52.321 66.5169 52.2377C66.3816 52.1545 66.2733 52.8203 66.2733 53.6802C66.2733 56.0936 65.786 58.5902 64.649 62.1132C63.6203 65.3033 62.375 67.9386 61.9148 67.9386C61.617 67.9386 61.617 64.6376 61.9148 61.281C62.0231 59.9772 62.1043 58.8954 62.0501 58.8399C61.9689 58.7012 61.5087 59.256 57.7458 63.8886C54.2536 68.1883 54.2265 68.2438 54.1453 67.2729C53.9829 65.442 56.0674 60.1437 58.206 56.8981C58.6391 56.2601 58.8828 55.733 58.7474 55.733C58.585 55.733 57.5292 56.2046 56.3651 56.8149C53.9828 57.9799 49.5161 59.7553 48.2708 60.005L47.4586 60.1714L48.5144 59.256C55.174 53.6525 56.8254 51.8494 58.6121 48.2709C59.2347 47.0781 59.8844 45.3582 60.0469 44.4705C60.7236 41.2249 59.8574 37.5078 57.8811 34.9279C57.448 34.3454 57.069 33.7906 57.069 33.7074C57.069 33.5964 57.3939 33.208 57.827 32.8474C58.7474 32.043 58.4226 31.5991 57.3668 32.2371C56.9336 32.4868 56.2839 32.7087 55.932 32.7087C55.2823 32.7087 54.0911 32.0152 54.0911 31.6269C54.0911 31.5159 55.6342 31.3772 57.5021 31.3494C60.859 31.3217 60.9131 31.3217 62.5645 32.2094Z" stroke="#4E4E4E" stroke-width="2" mask="url(#path-1-inside-1_2_50564)"/>
<path d="M87.1357 80.9316C87.1895 80.94 87.2606 80.9528 87.3486 80.9707C87.5249 81.0066 87.7551 81.0589 88.0234 81.124C88.5598 81.2542 89.2362 81.4317 89.915 81.6182C90.5938 81.8046 91.272 81.9993 91.8125 82.1641C92.0829 82.2465 92.3166 82.3205 92.4971 82.3818C92.6758 82.4426 92.7761 82.4824 92.8135 82.5C94.0813 83.2147 95.0126 85.0784 95.0127 87.3564C95.0127 88.2612 94.908 88.9428 94.668 89.5518C94.4279 90.1606 94.038 90.7325 93.415 91.3975L93.4062 91.4082C93.0633 91.7947 92.5791 92.1943 92.1396 92.4961C92.149 92.4774 92.1583 92.4584 92.168 92.4395L92.1699 92.4346C92.8859 90.9979 92.9149 89.5712 92.3213 88.1113L92.3193 88.1084C92.1989 87.818 92.0702 87.5641 91.9268 87.3799C91.8067 87.2257 91.5408 86.9499 91.1504 87.0254C90.9674 87.0608 90.8338 87.1643 90.7451 87.2617C90.6574 87.3581 90.5922 87.4717 90.541 87.5811C90.4393 87.7984 90.3574 88.0828 90.2871 88.4131C90.2521 88.5702 90.1356 88.8273 89.9258 89.1602C89.7228 89.4823 89.4546 89.8397 89.1553 90.1914C88.61 90.8321 88.0016 91.4021 87.5322 91.7021C87.5839 91.5418 87.6489 91.3525 87.7275 91.1299L87.7285 91.124C88.3401 89.3294 88.335 87.8507 87.3359 86.8623C86.8905 86.3943 86.3827 86.0897 85.7734 86.0566C85.2507 86.0283 84.7253 86.2042 84.1855 86.5166L83.9668 86.6504C83.3976 86.9907 82.9949 87.4347 82.7734 88.0283C82.5586 88.6044 82.5321 89.2761 82.6172 90.0469C82.6284 90.148 82.6317 90.2341 82.6338 90.3057C82.5058 90.2031 82.3449 90.0536 82.1533 89.8467C81.3603 88.9825 80.8387 87.8268 80.6533 86.6836C80.4667 85.5329 80.6297 84.4591 81.1201 83.7227L81.1221 83.7197C81.9485 82.4625 83.1616 81.7539 84.251 81.7539H84.2734C84.6163 81.7386 84.9974 81.6853 85.3457 81.6064C85.6847 81.5297 86.0346 81.4191 86.29 81.2695C86.4527 81.1743 86.638 81.0877 86.8047 81.0225C86.9399 80.9695 87.0426 80.9398 87.0996 80.9258C87.1093 80.9271 87.1215 80.9294 87.1357 80.9316Z" stroke="#4E4E4E"/>
<path d="M33.6973 81.3174C34.6015 81.2845 35.7583 81.4021 37.6426 81.666V81.667C38.9446 81.8501 39.8723 82.3051 40.4756 82.9707C41.0762 83.6335 41.4092 84.5641 41.4092 85.8047C41.4091 87.2238 40.9467 88.45 39.8623 89.8525C39.7461 90.0021 39.6397 90.1312 39.5449 90.2422C39.7951 88.7134 39.1879 87.3433 38.2295 86.5986C37.7393 86.2178 37.1431 85.9915 36.5205 86.0176C35.969 86.0408 35.4331 86.2614 34.9678 86.6865L34.7725 86.8809L34.7676 86.8867C34.4655 87.2257 34.2315 87.5216 34.1436 88.0527C34.0673 88.5136 34.1023 89.1499 34.1816 90.167V90.168L34.2783 91.4893L34.0742 91.3818L34.0732 91.3809L33.8486 91.2578C32.8266 90.6717 32.149 89.9033 31.7676 88.9141L31.6904 88.6982C31.5836 88.3703 31.4689 88.0898 31.3477 87.8682C31.2352 87.6627 31.0818 87.4408 30.8662 87.3145C30.7467 87.2445 30.5912 87.1954 30.415 87.2168C30.2393 87.2382 30.1004 87.3235 30.001 87.4189C29.8659 87.5488 29.7744 87.7234 29.709 87.9023L29.6514 88.082C29.4271 88.7834 29.3675 89.6366 29.4385 90.459C29.4978 91.1459 29.6533 91.8419 29.9023 92.4414C29.5046 92.1182 29.0858 91.6989 28.6963 91.2305C28.0785 90.4875 27.5811 89.6801 27.3623 89.041C26.9165 87.5941 27.003 86.3064 27.7988 84.5703L27.7979 84.5693C28.097 83.9318 28.4126 83.503 28.9043 83.1191C29.4149 82.7206 30.1384 82.3533 31.2949 81.8848L31.2979 81.8838C32.1662 81.5252 32.8177 81.3493 33.6973 81.3174Z" stroke="#4E4E4E"/>
</svg>
