<svg width="52" height="54" viewBox="0 0 52 54" fill="none" xmlns="http://www.w3.org/2000/svg">
<path d="M47.5637 4.19141H3.80859V26.7584H47.5637V4.19141Z" fill="#FEFEFE"/>
<path d="M47.5637 26.7031H3.80859V49.2701H47.5637V26.7031Z" fill="#1A1F71"/>
<path d="M16.6996 35.1923C16.347 35.0274 15.9632 34.9458 15.5761 34.9536C14.5131 34.9536 13.8362 35.5715 13.8362 36.3923C13.8362 37.095 14.3741 37.5644 15.1707 37.8773C15.8064 38.1345 16.078 38.4076 16.078 38.8478C16.078 39.3159 15.7228 39.6354 15.0871 39.6354C14.6456 39.6354 14.2145 39.4989 13.9275 39.3291L13.7461 39.9868C14.0061 40.1565 14.5363 40.2984 15.0382 40.2984C16.2376 40.2984 16.9003 39.6487 16.9003 38.7789C16.9003 38.0682 16.4885 37.6121 15.6314 37.2448C14.9545 36.9624 14.6534 36.7436 14.6534 36.3034C14.6534 35.9719 14.9185 35.6126 15.5542 35.6126C15.9918 35.6126 16.3289 35.7465 16.5027 35.8433L16.6996 35.1923ZM20.6774 39.5678H18.5759V37.8415H20.4471V37.1918H18.5759V35.6842H20.5577V35.0266H17.7651V40.2241H20.6774V39.5652V39.5678ZM24.8161 39.4498C24.5094 39.5766 24.1814 39.6396 23.8509 39.6354C22.7506 39.6354 22.066 38.9208 22.066 37.6452C22.066 36.2955 22.833 35.6166 23.8664 35.6166C24.1873 35.6129 24.5055 35.6779 24.8007 35.8075L24.9744 35.1645C24.8277 35.0889 24.4532 34.9589 23.8368 34.9589C22.3568 34.9589 21.2153 35.9242 21.2153 37.689C21.2153 39.3411 22.2101 40.2984 23.6991 40.2984C24.2782 40.2984 24.7325 40.1897 24.9551 40.0809L24.8161 39.4498ZM29.5134 35.0279H28.7013V38.1743C28.7013 39.2085 28.2844 39.6553 27.6139 39.6553C26.9987 39.6553 26.5586 39.2125 26.5586 38.1743V35.0279H25.7504V38.1265C25.7504 39.6752 26.4904 40.2984 27.5843 40.2984C28.7232 40.2984 29.5134 39.6487 29.5134 38.1067V35.0279ZM32.9031 37.742C33.4397 37.5431 33.8593 37.091 33.8593 36.4254C33.8593 36.0051 33.7126 35.6458 33.432 35.4071C33.0987 35.1154 32.611 34.9947 31.9122 34.9947C31.4772 34.9946 31.0429 35.0309 30.6137 35.1035V40.2255H31.4167V38.0271H31.9045C32.4707 38.0271 32.7281 38.291 32.8761 38.9818C33.0086 39.6195 33.1335 40.0756 33.2094 40.2255H34.0485C33.9429 40.0266 33.8104 39.4909 33.6508 38.812C33.5221 38.2631 33.2995 37.8985 32.9031 37.754V37.742ZM31.4167 37.4357V35.6524C31.5145 35.6259 31.7101 35.6047 31.983 35.6047C32.5621 35.6047 33.0498 35.8354 33.0498 36.5063C33.0498 37.0632 32.6303 37.4344 31.9611 37.4344L31.4167 37.4357ZM37.6763 39.5665H35.576V37.8428H37.4459V37.1931H35.576V35.6855H37.5579V35.0279H34.7665V40.2255H37.675L37.6763 39.5665Z" fill="#FEFEFE" stroke="#FEFEFE" stroke-width="0.382174"/>
<path fill-rule="evenodd" clip-rule="evenodd" d="M24.6604 10.5205L22.5628 20.6385H20.0276L22.1252 10.5205H24.6604ZM35.3367 17.0545L36.6751 13.2518L37.4446 17.0545H35.3367ZM38.1653 20.6385H40.5101L38.4665 10.5205H36.3006C36.0687 10.5197 35.8419 10.59 35.6489 10.7225C35.456 10.8549 35.3056 11.0435 35.217 11.2643L31.4129 20.6491H34.0742L34.6019 19.1349H37.8565L38.1653 20.6385ZM31.5467 17.3356C31.5544 14.6639 27.9691 14.5181 27.991 13.3221C27.9974 12.9575 28.3359 12.5756 29.0681 12.4775C29.4285 12.4284 30.4258 12.3913 31.5699 12.9257L32.0139 10.775C31.2554 10.4781 30.4509 10.3254 29.6395 10.3242C27.1339 10.3242 25.367 11.6992 25.3515 13.6721C25.3361 15.1306 26.614 15.9381 27.5779 16.4261C28.5624 16.922 28.8931 17.2415 28.8931 17.6857C28.8854 18.3579 28.1029 18.6615 27.3745 18.6775C26.0966 18.7 25.3592 18.3195 24.7647 18.041L24.3065 20.2593C24.8998 20.5404 25.9924 20.7883 27.1275 20.7963C29.7952 20.8029 31.5326 19.4359 31.5467 17.3356ZM21.0365 10.5205L16.9235 20.6385H14.2364L12.216 12.561C12.095 12.0638 11.9895 11.8795 11.6137 11.6687C11.0037 11.3279 9.99477 11.0084 9.10938 10.8069L9.16857 10.5125H13.4849C14.0344 10.5125 14.5311 10.8917 14.6585 11.5454L15.7254 17.4033L18.3636 10.5125H21.0352V10.5205H21.0365Z" fill="#1A1F71"/>
</svg>
