<svg width="48" height="54" viewBox="0 0 48 54" fill="none" xmlns="http://www.w3.org/2000/svg">
<path d="M47.1516 41.4003C47.1516 43.8598 46.5135 45.9945 45.2374 47.8043C43.9612 49.5909 42.3022 50.9715 40.2603 51.9461C38.2416 52.8974 36.0721 53.373 33.7518 53.373C32.2436 53.373 30.7354 53.1642 29.2272 52.7466C27.7422 52.3289 26.3849 51.9113 25.1551 51.4936C23.9485 51.0759 22.9856 50.8671 22.2663 50.8671C21.5702 50.8671 21.083 51.1456 20.8045 51.7024C20.5493 52.2593 20.3869 52.8162 20.3173 53.373H19.1687V38.6159H20.3173C20.7581 42.2588 22.0343 45.2172 24.1458 47.4911C26.2805 49.7418 29.2504 50.8671 33.0557 50.8671C34.4247 50.8671 35.7589 50.6119 37.0583 50.1014C38.3576 49.5677 39.425 48.7788 40.2603 47.7347C41.0956 46.6906 41.5133 45.3912 41.5133 43.8366C41.5133 42.1892 40.968 40.7506 39.8774 39.5208C38.7869 38.2911 37.3831 37.1657 35.6661 36.1448C33.9491 35.1006 32.116 34.0681 30.167 33.0472C28.2411 32.0262 26.4197 30.9125 24.7026 29.7059C22.9856 28.4994 21.5818 27.1072 20.4913 25.5294C19.4007 23.9516 18.8555 22.0837 18.8555 19.9258C18.8555 17.5823 19.4355 15.5753 20.5957 13.9046C21.7559 12.234 23.2757 10.9578 25.1551 10.0761C27.0345 9.17121 29.0648 8.71875 31.2459 8.71875C32.5221 8.71875 33.7982 8.91598 35.0744 9.31043C36.3506 9.70488 37.5107 10.1109 38.5549 10.5286C39.6222 10.923 40.4691 11.1203 41.0956 11.1203C41.7453 11.1203 42.221 10.8418 42.5226 10.285C42.8242 9.70488 43.0331 9.18281 43.1491 8.71875H44.3672V23.4411H43.1491C42.9635 21.2136 42.3834 19.1717 41.4088 17.3155C40.4575 15.4592 39.1349 13.9742 37.4411 12.8605C35.7705 11.7467 33.7286 11.1899 31.3155 11.1899C30.0626 11.1899 28.856 11.4567 27.6958 11.9904C26.5589 12.5241 25.6192 13.2782 24.8767 14.2527C24.1574 15.2272 23.7977 16.3758 23.7977 17.6983C23.7977 19.2529 24.3546 20.6219 25.4683 21.8053C26.6053 22.9886 28.0555 24.0792 29.8189 25.0769C31.6056 26.0746 33.485 27.084 35.4573 28.1049C37.4527 29.1026 39.3322 30.2164 41.0956 31.4461C42.8822 32.6527 44.3324 34.0565 45.4462 35.6575C46.5831 37.2585 47.1516 39.1728 47.1516 41.4003Z" fill="white"/>
<path d="M37.7075 18.5482C37.7075 22.765 36.7907 26.2791 34.9573 29.0904C33.1443 31.8812 30.659 33.9795 27.5014 35.3851C24.3438 36.7704 20.7585 37.463 16.7453 37.463H0V36.3935C1.5686 36.3935 2.72977 36.2509 3.48351 35.9657C4.23725 35.6805 4.72617 35.1407 4.95025 34.3462C5.19471 33.5517 5.31694 32.3905 5.31694 30.8627V6.60033C5.31694 5.01136 5.20489 3.81964 4.98081 3.02515C4.77709 2.2103 4.29837 1.67045 3.54462 1.40563C2.79088 1.12043 1.60934 0.977827 0 0.977827V0H15.2174C18.375 0 21.3085 0.305571 24.0179 0.916713C26.7476 1.50748 29.1311 2.50568 31.1682 3.91131C33.2258 5.29656 34.8249 7.1911 35.9657 9.59493C37.1269 11.9784 37.7075 14.9628 37.7075 18.5482ZM31.4738 18.7621C31.4738 15.686 30.8932 12.8849 29.7321 10.3589C28.5913 7.8328 26.9004 5.82622 24.6596 4.33911C22.4187 2.83162 19.6584 2.07788 16.3786 2.07788C15.4008 2.07788 14.4331 2.15937 13.4757 2.32234C12.5386 2.46494 11.5913 2.66865 10.6339 2.93348V34.7434C11.5913 34.9879 12.5692 35.1916 13.5674 35.3546C14.5656 35.5175 15.5434 35.599 16.5008 35.599C19.7603 35.599 22.5002 34.8351 24.7207 33.3072C26.9412 31.759 28.6218 29.7117 29.7626 27.1653C30.9034 24.6188 31.4738 21.8178 31.4738 18.7621Z" fill="white"/>
</svg>
