<svg width="14" height="14" viewBox="0 0 14 14" fill="none" xmlns="http://www.w3.org/2000/svg">
<path d="M9.23061 10.146L10.3718 4.76603C10.4184 4.5383 10.3899 4.37527 10.2864 4.27694C10.1881 4.1786 10.0561 4.16049 9.89049 4.2226L3.18297 6.80779C3.03288 6.86472 2.92937 6.92941 2.87244 7.00187C2.82068 7.07433 2.8155 7.1442 2.85691 7.21148C2.89831 7.27359 2.98112 7.32276 3.10534 7.35898L4.82103 7.89466L8.80363 5.3871C8.91231 5.31464 8.99512 5.29911 9.05205 5.34052C9.08828 5.36639 9.07793 5.40521 9.021 5.45697L5.79921 8.36822L5.675 10.1383C5.79404 10.1383 5.91049 10.0813 6.02435 9.96747L6.86279 9.16008L8.60178 10.441C8.93302 10.6274 9.14263 10.529 9.23061 10.146ZM13.3607 4.25365C13.7282 5.11279 13.9119 6.01334 13.9119 6.95529C13.9119 7.89724 13.7282 8.79779 13.3607 9.65693C12.9932 10.5161 12.499 11.2562 11.8779 11.8772C11.2568 12.4983 10.5167 12.9926 9.65759 13.36C8.79845 13.7275 7.8979 13.9112 6.95595 13.9112C6.014 13.9112 5.11345 13.7275 4.25431 13.36C3.39517 12.9926 2.65506 12.4983 2.03399 11.8772C1.41293 11.2562 0.918662 10.5161 0.551197 9.65693C0.183732 8.79779 0 7.89724 0 6.95529C0 6.01334 0.183732 5.11279 0.551197 4.25365C0.918662 3.39451 1.41293 2.6544 2.03399 2.03333C2.65506 1.41227 3.39517 0.918001 4.25431 0.550536C5.11345 0.183071 6.014 -0.000661435 6.95595 -0.000661435C7.8979 -0.000661435 8.79845 0.183071 9.65759 0.550536C10.5167 0.918001 11.2568 1.41227 11.8779 2.03333C12.499 2.6544 12.9932 3.39451 13.3607 4.25365Z" fill="white"/>
</svg>
