<svg width="349" height="54" viewBox="0 0 349 54" fill="none" xmlns="http://www.w3.org/2000/svg">
<g clip-path="url(#clip0_2_76294)">
<path d="M1.47218 1.62825C0.962926 2.28602 0.238654 4.44398 0.0689022 5.8403C-0.293234 8.75989 0.759224 10.9986 3.53183 13.1912C5.62543 14.8529 8.53383 16.4224 11.6912 17.5994C12.6758 17.9687 12.6984 17.9803 12.2231 17.9918C10.8764 18.0033 7.06265 16.8955 4.91247 15.8685C3.57709 15.2338 1.8909 14.1144 0.917659 13.2143C0.544206 12.8565 0.170753 12.5681 0.102852 12.5681C0.0236352 12.5681 0.00100175 12.9489 0.0462688 13.8028C0.21602 16.7109 1.32506 18.5111 3.72421 19.7805C5.42173 20.6806 7.76429 21.246 12.4947 21.9384C13.9546 22.1462 15.1428 22.3539 15.1428 22.4C15.1428 22.4923 14.3167 22.5847 12.54 22.6654C9.326 22.827 4.5956 22.2269 2.37752 21.373C2.11723 21.2691 1.86827 21.223 1.83432 21.2576C1.72115 21.373 2.87546 22.9886 3.55446 23.6694C4.47112 24.5811 4.98037 24.9388 5.97625 25.3427C7.37952 25.9312 8.09248 26.012 11.4649 26.012C13.1511 26.012 15.1881 25.9659 15.9916 25.9197C17.7796 25.8158 17.6891 25.9082 15.5389 26.4505C12.5739 27.2006 9.72209 27.5468 7.54927 27.4083C6.8929 27.3737 6.32707 27.3737 6.29311 27.4083C6.16863 27.5237 7.77561 28.9431 8.59042 29.4278C10.718 30.7203 12.3363 30.6741 18.8094 29.1278C19.2282 29.0239 19.6356 28.9662 19.7035 28.9893C19.8506 29.0355 17.259 30.3395 16.2292 30.7318C15.2673 31.1011 14.0225 31.4358 12.9926 31.6089C11.827 31.805 11.7591 31.8281 11.9968 31.9666C12.4042 32.1974 13.9885 32.4282 15.1428 32.4282C16.8516 32.4282 18.3228 32.0704 19.8732 31.2742C20.8465 30.778 20.8012 31.0434 19.7261 32.0243C18.6057 33.0513 17.7909 33.6745 17.2364 33.9284C16.9761 34.0438 16.7385 34.1707 16.6932 34.2169C16.6479 34.263 16.8856 34.4246 17.2251 34.5631C17.9946 34.8746 18.7529 35.4055 19.4884 36.1325C19.794 36.4325 20.0656 36.6864 20.0882 36.6864C20.1109 36.6864 20.1675 36.571 20.224 36.421C20.3938 35.9709 22.046 33.8591 22.046 34.1015C22.046 34.2169 21.7065 35.0247 21.2878 35.8786C20.5862 37.3211 20.4391 37.5173 19.4432 38.5559C18.2776 39.7675 17.6212 40.1714 16.1047 40.61C14.9278 40.9562 14.9391 40.9677 16.365 41.2908C17.6891 41.6024 18.5831 41.6024 19.4545 41.3024C19.8393 41.1639 20.1674 41.0831 20.1901 41.1062C20.2127 41.1293 19.794 41.5908 19.2508 42.1217C18.2323 43.1257 17.259 43.7834 16.614 43.9104C16.399 43.9565 16.2179 44.0835 16.1613 44.2335C15.935 44.7759 15.3352 47.0838 15.3918 47.1415C15.5728 47.3146 17.542 45.9645 18.4247 45.0528C18.7642 44.7066 19.081 44.4181 19.1263 44.4181C19.3979 44.4181 17.6778 47.2338 16.9874 47.9378L16.4442 48.4802L16.8969 48.884C17.4514 49.3803 19.3866 50.8805 19.4658 50.8805C19.5337 50.8805 21.1633 47.8339 21.8197 46.4953C22.0234 46.0799 22.2158 45.8144 22.2384 45.8837C22.3063 46.0799 21.9781 47.9955 21.5707 49.7842C21.3783 50.615 21.2199 51.3882 21.2086 51.5036C21.1973 51.7344 21.5481 51.9767 23.2569 52.9115C24.2075 53.4308 24.5357 53.5231 24.5357 53.2692C24.5357 53.2 24.6376 52.4268 24.7621 51.5728C24.8865 50.7189 25.0676 49.0802 25.1695 47.9378C25.2713 46.7953 25.3732 45.7798 25.4071 45.6875C25.5203 45.2951 25.6448 45.9068 25.8258 47.7647C25.939 48.8148 26.0974 50.2342 26.188 50.9151C26.2672 51.5959 26.3464 52.3345 26.3464 52.5537C26.3464 52.7615 26.3917 53.073 26.4482 53.223L26.5501 53.5L28.1231 52.7268C28.9832 52.2999 29.7527 51.8729 29.832 51.7806C29.9338 51.6421 29.9338 51.4921 29.8093 51.042C29.5038 49.9226 28.8474 46.6569 28.6776 45.4105C28.6211 45.0067 28.6324 44.9836 28.7682 45.1798C28.8474 45.2951 28.9606 45.5375 29.0171 45.7106C29.2208 46.3453 31.4955 50.9843 31.6087 50.9843C31.7445 50.9958 33.4194 49.7149 34.1889 49.011L34.7434 48.5148L33.906 47.6377C33.1364 46.83 32.1972 45.3644 32.0274 44.7412C31.9821 44.5451 32.1745 44.672 32.8648 45.2836C34.37 46.6222 35.7393 47.4185 35.7393 46.9454C35.7393 46.8877 35.6148 46.5299 35.4677 46.1722C35.3206 45.8029 35.1395 45.2144 35.0603 44.8682C34.8792 44.095 34.8113 44.0027 34.336 43.9104C33.8041 43.8065 32.7743 43.091 31.7784 42.1448C30.9636 41.36 30.7939 41.0139 31.371 41.2793C31.5182 41.3485 32.0387 41.4639 32.5367 41.5447C33.2722 41.6485 33.5665 41.6485 34.3247 41.4985C35.3772 41.2908 35.8525 41.1293 35.8525 40.9562C35.8525 40.8985 35.7506 40.8408 35.6261 40.8408C35.23 40.8408 33.5438 40.0907 32.8309 39.5944C31.5408 38.6943 30.3299 37.1711 29.5038 35.3709C28.7569 33.7322 28.8248 33.6168 29.7754 34.8977C30.2507 35.5324 30.7373 36.1786 30.8618 36.3402L31.0768 36.6172L31.6879 36.0402C32.4009 35.3593 33.408 34.6554 33.8494 34.5515C34.0192 34.5054 34.155 34.4361 34.155 34.39C34.155 34.3438 33.7589 34.0207 33.2836 33.686C32.3782 33.0398 30.5336 31.3204 30.5336 31.1242C30.5336 31.0549 30.7486 31.1357 31.0202 31.2973C32.1293 31.9435 34.3021 32.532 35.6261 32.532C36.5881 32.5205 37.7989 32.3589 38.5685 32.1166C39.3267 31.8858 39.2588 31.8512 37.4708 31.505C35.8298 31.1934 35.0829 30.9395 33.4194 30.1087C31.2239 29.0124 31.1673 28.8854 33.0799 29.347C34.2002 29.6125 35.2074 29.8317 36.9162 30.1664C38.229 30.4202 40.0623 30.3972 41.0016 30.0971C41.7372 29.8663 42.4728 29.5086 43.1518 29.0355C43.7516 28.62 44.9059 27.5584 44.9059 27.4199C44.9059 27.316 44.5777 27.2929 43.695 27.3391C40.4471 27.4891 35.9883 26.889 34.2115 26.0466L33.7589 25.8389L34.2681 25.8966C35.6374 26.0351 41.1827 26.0928 42.1898 25.9659C44.7135 25.6543 46.2752 25.008 47.5087 23.7733C48.2217 23.0578 49.3081 21.4076 49.1723 21.2691C49.1383 21.2345 48.663 21.3384 48.1085 21.4999C45.2454 22.3539 43.1857 22.6308 39.6436 22.6539C37.1199 22.6654 35.7393 22.5731 35.7393 22.3885C35.7393 22.3308 36.0109 22.2616 36.3391 22.2269C39.1909 21.9154 43.2989 21.223 44.3966 20.8768C44.589 20.8191 45.0869 20.6575 45.5057 20.519C46.5694 20.1844 47.8935 19.5035 48.697 18.8804C49.7155 18.0957 50.3945 17.0455 50.7114 15.73C50.8924 15.003 51.0848 12.5681 50.9603 12.5681C50.9151 12.5681 50.519 12.9142 50.0776 13.3297C47.6898 15.5569 43.7742 17.2994 39.8699 17.8764C38.3421 18.0957 38.3195 18.0149 39.7567 17.4263C46.2865 14.7375 49.9758 11.7949 50.7906 8.64449C51.0848 7.50205 50.9037 5.18253 50.3832 3.56695C50.1795 2.94379 49.5684 1.63979 49.4439 1.54747C49.3873 1.52439 49.3194 1.70903 49.2741 1.9629C49.0931 3.11689 48.3009 4.91711 47.4182 6.16342C46.8523 6.95967 45.5736 8.30984 44.6116 9.11763C43.1065 10.3639 40.4357 11.8641 36.9841 13.3758C36.0788 13.7682 35.2979 14.1375 35.2414 14.1952C35.1848 14.2529 35.1848 14.3452 35.2527 14.4375C35.6148 14.8876 35.7393 17.3225 35.4564 18.5226C34.9811 20.5998 33.5778 22.2039 32.1632 22.2962L31.7332 22.3193L31.5408 21.0499C31.2352 19.0881 30.8278 17.9456 29.8999 16.5262C28.4739 14.3337 26.3238 13.0296 24.1396 13.0296C22.7703 13.0296 21.6613 13.3181 21.0841 13.8374C20.9596 13.9528 20.6428 14.0682 20.3712 14.1029C19.4092 14.2183 18.7642 15.0376 18.7642 16.1339C18.7642 16.8032 18.9566 17.3456 19.3187 17.7264C19.6356 18.0726 19.76 18.061 19.6921 17.7033C19.5563 16.9647 20.6767 16.6762 21.5028 17.2417C22.1252 17.6687 22.4195 18.3957 22.3629 19.3766C22.329 20.0805 22.2724 20.2536 21.8763 20.8306C21.5594 21.2922 21.2312 21.6038 20.8012 21.8461C20.2467 22.1692 20.0769 22.2039 19.2168 22.2039C18.3794 22.2039 18.187 22.1692 17.7343 21.8923C16.6932 21.2691 15.9689 20.2421 15.5502 18.8111C15.222 17.6918 15.3352 15.4069 15.7652 14.3914C15.8218 14.2413 15.7652 14.1606 15.5163 14.0567C12.6079 12.8335 9.55234 11.2063 7.45874 9.76386C6.53077 9.12917 4.88984 7.65206 4.26742 6.89043C2.94336 5.27485 1.94748 3.31307 1.823 2.11292C1.7551 1.47823 1.67588 1.37437 1.47218 1.62825ZM26.154 14.8991C27.4215 15.5915 28.6097 17.034 29.368 18.8111C29.9791 20.2536 30.1941 21.3153 30.2733 23.1847C30.3412 24.9388 30.2394 26.8775 30.0809 26.8775C30.0243 26.8775 29.8885 26.7044 29.7641 26.4967C29.6509 26.3005 29.1756 25.4927 28.7229 24.708C28.2702 23.9348 27.8515 23.2655 27.8063 23.2309C27.7497 23.1963 27.7044 23.4732 27.7044 23.831C27.7044 24.8349 27.5007 25.8735 27.0254 27.3391C26.5954 28.6662 26.0748 29.7625 25.8824 29.7625C25.7579 29.7625 25.7579 28.3892 25.8824 26.9929C25.9277 26.4505 25.9616 26.0005 25.939 25.9774C25.905 25.9197 25.7127 26.1505 24.1396 28.0776C22.6798 29.8663 22.6685 29.8894 22.6345 29.4855C22.5666 28.7239 23.438 26.5198 24.332 25.1696C24.5131 24.9042 24.6149 24.6849 24.5583 24.6849C24.4904 24.6849 24.0491 24.8811 23.5625 25.135C22.5666 25.6197 20.6993 26.3582 20.1788 26.4621L19.8393 26.5313L20.2806 26.1505C23.0645 23.8194 23.7549 23.0693 24.5018 21.5807C24.7621 21.0845 25.0337 20.369 25.1016 19.9997C25.3845 18.6496 25.0223 17.1032 24.1962 16.03C24.0151 15.7877 23.8567 15.5569 23.8567 15.5223C23.8567 15.4761 23.9925 15.3145 24.1736 15.1645C24.5584 14.8299 24.4225 14.6452 23.9812 14.9106C23.8001 15.0145 23.5285 15.1068 23.3814 15.1068C23.1098 15.1068 22.6119 14.8183 22.6119 14.6568C22.6119 14.6106 23.2569 14.5529 24.0378 14.5414C25.4411 14.5298 25.4637 14.5298 26.154 14.8991Z" fill="white"/>
<path d="M35.9658 35.1282C35.8073 35.2205 35.4792 35.2897 35.2189 35.3013C34.6757 35.3013 34.1098 35.6475 33.7364 36.2129C33.2498 36.9399 33.4648 38.2324 34.1891 39.0171C34.6078 39.4672 34.8002 39.4441 34.7436 38.9363C34.6757 38.3247 34.8002 37.967 35.2076 37.7246C35.6942 37.4131 36.0337 37.4362 36.3619 37.7823C36.6901 38.1055 36.724 38.6132 36.475 39.3402C36.2374 40.0095 36.26 40.0672 36.6222 39.8711C37.0975 39.6172 37.8557 38.7286 37.9462 38.3247C38.0594 37.7939 38.2065 37.7708 38.3989 38.2324C38.6252 38.7863 38.6139 39.3172 38.3423 39.8595C38.2178 40.1019 38.1386 40.3211 38.1612 40.3557C38.2518 40.4365 38.8629 40.0442 39.2024 39.6633C39.7456 39.0864 39.9266 38.6248 39.9266 37.84C39.9266 36.8476 39.5192 35.9821 38.8968 35.6359C38.6705 35.5205 36.6108 34.9551 36.3958 34.9551C36.3166 34.9666 36.1242 35.0359 35.9658 35.1282Z" fill="white"/>
<path d="M13.004 35.3705C12.0307 35.7629 11.7025 36.0168 11.4309 36.5938C11.0801 37.3554 11.0349 37.9439 11.2386 38.6017C11.4423 39.2018 12.1439 40.0442 12.6871 40.3327L13.004 40.5058L12.755 40.0096C12.4947 39.5134 12.4268 38.7171 12.5966 38.1978C12.6984 37.8401 12.8795 37.9439 13.0492 38.4632C13.2303 39.0056 13.5924 39.4095 14.147 39.698L14.5657 39.9173L14.4978 38.9941C14.4299 38.1286 14.4525 38.0478 14.6902 37.7824C15.4031 37.0092 16.5348 37.8862 16.3198 39.0402C16.2292 39.5826 16.3877 39.5711 16.829 39.0056C17.3043 38.394 17.5194 37.8401 17.5194 37.1938C17.5194 36.086 16.9196 35.4282 15.7653 35.2667C14.1922 35.0474 13.7622 35.059 13.004 35.3705Z" fill="white"/>
</g>
<path d="M110.194 28.0852C110.194 32.302 109.278 35.8161 107.444 38.6274C105.631 41.4182 103.146 43.5165 99.9882 44.9221C96.8307 46.3074 93.2453 47 89.2321 47H72.4869V45.9305C74.0555 45.9305 75.2166 45.7879 75.9704 45.5027C76.7241 45.2175 77.213 44.6777 77.4371 43.8832C77.6816 43.0887 77.8038 41.9275 77.8038 40.3997V16.1373C77.8038 14.5484 77.6918 13.3566 77.4677 12.5622C77.264 11.7473 76.7852 11.2075 76.0315 10.9426C75.2777 10.6574 74.0962 10.5148 72.4869 10.5148V9.537H87.7043C90.8619 9.537 93.7953 9.84257 96.5047 10.4537C99.2345 11.0445 101.618 12.0427 103.655 13.4483C105.713 14.8336 107.312 16.7281 108.453 19.1319C109.614 21.5154 110.194 24.4998 110.194 28.0852ZM103.961 28.2991C103.961 25.223 103.38 22.4219 102.219 19.8959C101.078 17.3698 99.3873 15.3632 97.1464 13.8761C94.9056 12.3686 92.1453 11.6149 88.8655 11.6149C87.8876 11.6149 86.92 11.6964 85.9625 11.8593C85.0255 12.0019 84.0782 12.2057 83.1207 12.4705V44.2804C84.0782 44.5249 85.056 44.7286 86.0542 44.8916C87.0524 45.0545 88.0302 45.136 88.9877 45.136C92.2471 45.136 94.9871 44.3721 97.2075 42.8442C99.428 41.296 101.109 39.2487 102.249 36.7023C103.39 34.1558 103.961 31.3548 103.961 28.2991ZM151.08 28.0852C151.08 30.7538 150.642 33.2799 149.766 35.6633C148.91 38.0468 147.667 40.1654 146.038 42.0192C144.428 43.8526 142.493 45.299 140.232 46.3583C137.971 47.3972 135.455 47.9167 132.684 47.9167C128.956 47.9167 125.717 47.0204 122.967 45.2277C120.237 43.4146 118.119 41.0108 116.611 38.0162C115.104 35.0216 114.35 31.7316 114.35 28.1463C114.35 24.5405 115.145 21.2709 116.734 18.3374C118.343 15.3836 120.553 13.0409 123.364 11.3093C126.176 9.57775 129.425 8.71196 133.112 8.71196C135.822 8.71196 138.276 9.23143 140.476 10.2704C142.677 11.2889 144.561 12.7048 146.129 14.5178C147.718 16.3105 148.941 18.368 149.796 20.6903C150.652 23.0127 151.08 25.4776 151.08 28.0852ZM144.785 28.4518C144.785 26.3943 144.612 24.3165 144.265 22.2182C143.94 20.1199 143.339 18.205 142.463 16.4735C141.587 14.7215 140.344 13.3159 138.735 12.2566C137.146 11.1973 135.078 10.6676 132.532 10.6676C130.189 10.6676 128.243 11.2075 126.695 12.2871C125.167 13.3465 123.965 14.7419 123.089 16.4735C122.213 18.205 121.592 20.0792 121.225 22.096C120.879 24.1127 120.706 26.0786 120.706 27.9935C120.706 29.8677 120.889 31.8437 121.256 33.9216C121.623 35.9994 122.244 37.9449 123.12 39.758C124.016 41.571 125.228 43.0479 126.756 44.1887C128.304 45.3092 130.25 45.8694 132.593 45.8694C135.058 45.8694 137.085 45.3499 138.674 44.311C140.262 43.272 141.495 41.897 142.371 40.1858C143.267 38.4746 143.889 36.6004 144.235 34.5633C144.602 32.5058 144.785 30.4686 144.785 28.4518ZM202.446 47H186.465V45.9305C188.013 45.9305 189.164 45.7879 189.918 45.5027C190.692 45.2175 191.201 44.6878 191.446 43.9137C191.69 43.1192 191.812 41.9683 191.812 40.4608V15.4651L177.298 47H176.412L161.927 15.4651V40.4608C161.927 41.9886 162.05 43.1498 162.294 43.9443C162.539 44.7184 163.038 45.2481 163.791 45.5333C164.545 45.7981 165.696 45.9305 167.244 45.9305V47H154.258V45.9305C155.826 45.9305 156.977 45.7879 157.711 45.5027C158.464 45.2175 158.953 44.6878 159.177 43.9137C159.401 43.1192 159.513 41.9683 159.513 40.4608V15.9845C159.513 13.9678 159.157 12.552 158.444 11.7371C157.751 10.9223 156.356 10.5148 154.258 10.5148V9.537H164.83L178.428 38.8107L191.812 9.537H202.446V10.5148C200.878 10.5148 199.706 10.6574 198.932 10.9426C198.178 11.2278 197.689 11.7677 197.465 12.5622C197.241 13.3363 197.129 14.4771 197.129 15.9845V40.4608C197.129 41.9886 197.251 43.1498 197.496 43.9443C197.74 44.7184 198.239 45.2481 198.993 45.5333C199.747 45.7981 200.898 45.9305 202.446 45.9305V47ZM221.178 47H205.135V45.9305C206.745 45.9305 207.916 45.7879 208.649 45.5027C209.403 45.1971 209.892 44.6471 210.116 43.8526C210.34 43.0581 210.452 41.9072 210.452 40.3997V16.1373C210.452 14.6095 210.34 13.4381 210.116 12.6233C209.892 11.8084 209.403 11.2584 208.649 10.9732C207.916 10.6676 206.745 10.5148 205.135 10.5148V9.537H221.178V10.5148C219.609 10.5148 218.438 10.6676 217.664 10.9732C216.91 11.2584 216.411 11.8084 216.166 12.6233C215.922 13.4381 215.8 14.6095 215.8 16.1373V40.3997C215.8 41.9072 215.912 43.0581 216.136 43.8526C216.36 44.6471 216.849 45.1971 217.602 45.5027C218.377 45.7879 219.568 45.9305 221.178 45.9305V47ZM262.705 9.537V10.5148C261.136 10.5148 259.965 10.6574 259.191 10.9426C258.437 11.2278 257.938 11.7677 257.693 12.5622C257.469 13.3363 257.357 14.4771 257.357 15.9845V47.5806H256.379L231.598 17.4207V40.4608C231.598 42.009 231.71 43.1804 231.934 43.9748C232.158 44.749 232.647 45.2684 233.401 45.5333C234.175 45.7981 235.346 45.9305 236.915 45.9305V47H223.867V45.9305C225.415 45.9305 226.566 45.7879 227.32 45.5027C228.073 45.2175 228.573 44.6878 228.817 43.9137C229.061 43.1192 229.184 41.9683 229.184 40.4608V14.3956C228.247 13.1326 227.381 12.1751 226.586 11.5232C225.812 10.851 224.58 10.5148 222.889 10.5148V9.537H232.056L254.974 37.619V15.9845C254.974 14.4771 254.852 13.3363 254.607 12.5622C254.363 11.7677 253.853 11.2278 253.079 10.9426C252.326 10.6574 251.164 10.5148 249.596 10.5148V9.537H262.705ZM303.804 9.537V10.5148C301.543 10.5148 300.066 10.9426 299.373 11.7982C298.701 12.6538 298.365 14.1715 298.365 16.3512V31.5992C298.365 35.0012 297.927 37.9245 297.051 40.3691C296.175 42.8137 294.678 44.6878 292.559 45.9916C290.461 47.275 287.568 47.9167 283.881 47.9167C279.807 47.9167 276.71 47.2445 274.591 45.8999C272.493 44.5554 271.067 42.6201 270.313 40.0941C269.56 37.5477 269.183 34.4716 269.183 30.8659V16.1373C269.183 14.7521 269.081 13.652 268.877 12.8372C268.694 12.0223 268.256 11.4315 267.563 11.0649C266.871 10.6982 265.791 10.5148 264.324 10.5148V9.537H279.389V10.5148C277.23 10.5148 275.875 10.9426 275.325 11.7982C274.775 12.6335 274.5 14.0798 274.5 16.1373V32.5159C274.5 34.8383 274.734 36.9875 275.203 38.9635C275.671 40.9191 276.598 42.4979 277.983 43.6998C279.389 44.9017 281.477 45.5027 284.248 45.5027C285.938 45.5027 287.558 45.2277 289.106 44.6777C290.654 44.1276 292.05 43.272 293.292 42.1109C294.107 41.3571 294.688 40.3284 295.034 39.0246C295.401 37.7005 295.625 36.3356 295.706 34.9299C295.808 33.5243 295.859 32.3122 295.859 31.2937V16.1373C295.859 14.5687 295.737 13.3872 295.493 12.5927C295.268 11.7779 294.769 11.2278 293.995 10.9426C293.241 10.6574 292.07 10.5148 290.481 10.5148V9.537H303.804ZM332.803 37.4051C332.803 39.5644 332.243 41.4386 331.122 43.0276C330.002 44.5962 328.545 45.8083 326.752 46.6639C324.98 47.4991 323.075 47.9167 321.038 47.9167C319.714 47.9167 318.39 47.7334 317.066 47.3667C315.762 47 314.57 46.6333 313.491 46.2666C312.431 45.8999 311.586 45.7166 310.954 45.7166C310.343 45.7166 309.915 45.9611 309.671 46.45C309.447 46.9389 309.304 47.4278 309.243 47.9167H308.235V34.9605H309.243C309.63 38.1588 310.751 40.7562 312.605 42.7526C314.479 44.7286 317.086 45.7166 320.427 45.7166C321.629 45.7166 322.8 45.4925 323.941 45.0443C325.082 44.5758 326.019 43.8832 326.752 42.9665C327.486 42.0498 327.853 40.909 327.853 39.5441C327.853 38.0977 327.374 36.8347 326.416 35.755C325.459 34.6753 324.226 33.6873 322.719 32.791C321.211 31.8742 319.602 30.9677 317.891 30.0714C316.2 29.175 314.601 28.1972 313.093 27.1379C311.586 26.0786 310.353 24.8563 309.396 23.471C308.439 22.0858 307.96 20.4459 307.96 18.5513C307.96 16.4938 308.469 14.7317 309.488 13.265C310.506 11.7982 311.841 10.6778 313.491 9.90369C315.141 9.1092 316.923 8.71196 318.838 8.71196C319.959 8.71196 321.079 8.88512 322.199 9.23143C323.32 9.57775 324.338 9.93424 325.255 10.3009C326.192 10.6472 326.936 10.8204 327.486 10.8204C328.056 10.8204 328.474 10.5759 328.739 10.087C329.003 9.57775 329.187 9.11939 329.289 8.71196H330.358V21.6376H329.289C329.126 19.682 328.616 17.8893 327.761 16.2596C326.926 14.6299 325.764 13.3261 324.277 12.3483C322.811 11.3704 321.018 10.8815 318.899 10.8815C317.799 10.8815 316.74 11.1158 315.721 11.5843C314.723 12.0529 313.898 12.7149 313.246 13.5705C312.615 14.4261 312.299 15.4345 312.299 16.5957C312.299 17.9606 312.788 19.1625 313.766 20.2014C314.764 21.2404 316.037 22.1978 317.585 23.0738C319.154 23.9498 320.804 24.8359 322.536 25.7323C324.288 26.6082 325.938 27.5861 327.486 28.6657C329.054 29.7251 330.328 30.9575 331.305 32.3632C332.304 33.7688 332.803 35.4494 332.803 37.4051Z" fill="white"/>
<defs>
<clipPath id="clip0_2_76294">
<rect width="51" height="52" fill="white" transform="translate(0 1.5)"/>
</clipPath>
</defs>
</svg>
